<svg width="61" height="61" viewBox="0 0 61 61" fill="none" xmlns="http://www.w3.org/2000/svg">
<g clip-path="url(#clip0_1_463)">
<path d="M18 20.5C20.0711 20.5 21.75 19.3807 21.75 18C21.75 16.6193 20.0711 15.5 18 15.5C15.9289 15.5 14.25 16.6193 14.25 18C14.25 19.3807 15.9289 20.5 18 20.5Z" fill="#39285E"/>
<path d="M31.75 24.25C31.75 26.9695 30.9436 29.6279 29.4327 31.8891C27.9218 34.1503 25.7744 35.9126 23.2619 36.9533C20.7494 37.994 17.9848 38.2663 15.3175 37.7358C12.6503 37.2053 10.2003 35.8957 8.27729 33.9727C6.35432 32.0497 5.04476 29.5997 4.51421 26.9325C3.98366 24.2653 4.25596 21.5006 5.29666 18.9881C6.33737 16.4756 8.09974 14.3282 10.3609 12.8173C12.6221 11.3064 15.2805 10.5 18 10.5C19.806 10.499 21.5944 10.854 23.2631 11.5447C24.9317 12.2353 26.4479 13.2481 27.7249 14.5251C29.0019 15.8021 30.0147 17.3183 30.7054 18.9869C31.396 20.6556 31.751 22.444 31.75 24.25ZM21.75 18C21.75 16.625 20.075 15.5 18 15.5C15.925 15.5 14.25 16.625 14.25 18C14.25 19.375 15.925 20.5 18 20.5C20.075 20.5 21.75 19.375 21.75 18Z" fill="#6F60BA"/>
<path d="M43 29.25C45.0711 29.25 46.75 28.1307 46.75 26.75C46.75 25.3693 45.0711 24.25 43 24.25C40.9289 24.25 39.25 25.3693 39.25 26.75C39.25 28.1307 40.9289 29.25 43 29.25Z" fill="#39285E"/>
<path d="M43 19.25C45.7195 19.25 48.3779 20.0564 50.6391 21.5673C52.9003 23.0782 54.6626 25.2256 55.7033 27.7381C56.744 30.2506 57.0163 33.0153 56.4858 35.6825C55.9553 38.3497 54.6457 40.7997 52.7227 42.7227C50.7997 44.6457 48.3497 45.9553 45.6825 46.4858C43.0153 47.0163 40.2506 46.744 37.7381 45.7033C35.2256 44.6626 33.0782 42.9003 31.5673 40.6391C30.0564 38.3779 29.25 35.7195 29.25 33C29.249 31.194 29.604 29.4056 30.2946 27.7369C30.9853 26.0683 31.9981 24.5521 33.2751 23.2751C34.5521 21.9981 36.0683 20.9853 37.7369 20.2947C39.4056 19.604 41.194 19.249 43 19.25ZM46.75 26.75C46.75 25.375 45.075 24.25 43 24.25C40.925 24.25 39.25 25.375 39.25 26.75C39.25 28.125 40.925 29.25 43 29.25C45.075 29.25 46.75 28.125 46.75 26.75Z" fill="#7E6DD4"/>
<path d="M10.5 49.25C11.8807 49.25 13 47.5711 13 45.5C13 43.4289 11.8807 41.75 10.5 41.75C9.11929 41.75 8 43.4289 8 45.5C8 47.5711 9.11929 49.25 10.5 49.25Z" fill="#39285E"/>
<path d="M18 31.75C20.7195 31.75 23.3779 32.5564 25.6391 34.0673C27.9003 35.5782 29.6626 37.7256 30.7033 40.2381C31.744 42.7506 32.0163 45.5153 31.4858 48.1825C30.9553 50.8497 29.6457 53.2997 27.7227 55.2227C25.7997 57.1457 23.3497 58.4553 20.6825 58.9858C18.0153 59.5163 15.2506 59.244 12.7381 58.2033C10.2256 57.1626 8.07816 55.4003 6.56729 53.1391C5.05643 50.8779 4.25 48.2195 4.25 45.5C4.24902 43.694 4.604 41.9056 5.29465 40.2369C5.9853 38.5683 6.99808 37.0521 8.27509 35.7751C9.55209 34.4981 11.0683 33.4853 12.7369 32.7946C14.4056 32.104 16.194 31.749 18 31.75ZM13 45.5C13 43.425 11.875 41.75 10.5 41.75C9.125 41.75 8 43.425 8 45.5C8 47.575 9.125 49.25 10.5 49.25C11.875 49.25 13 47.575 13 45.5Z" fill="#7E6DD4"/>
<path d="M31.75 24.1325C32.1475 24.2125 32.375 24.25 32.375 24.25L32.4088 24.2288C32.6213 23.9713 32.8512 23.7287 33.0825 23.4875C33.9802 21.8453 34.3856 19.9791 34.25 18.1125C34.25 18.1125 34.25 4.8125 21.125 1.75C20.0697 4.57592 19.4787 7.554 19.375 10.5688C22.7475 10.9051 25.8767 12.4761 28.161 14.9799C30.4453 17.4836 31.7236 20.7434 31.75 24.1325Z" fill="#4E8C00"/>
<path d="M43 19.25C46.5678 19.2479 49.9955 20.6382 52.5538 23.125C53.4633 22.3274 54.1954 21.348 54.7029 20.2499C55.2103 19.1518 55.4819 17.9595 55.5 16.75C55.5 6.75 53 1.75 53 1.75C48.8105 7.22853 45.1681 13.1045 42.125 19.2938C42.415 19.2763 42.705 19.25 43 19.25Z" fill="#63B300"/>
<path d="M53 1.75C36.8175 5.2175 35.6 19.3638 35.5087 21.4763C37.4885 20.1893 39.768 19.4374 42.125 19.2938C45.168 13.1045 48.8104 7.22853 53 1.75Z" fill="#4E8C00"/>
<path d="M43 29.25C45.0711 29.25 46.75 28.1307 46.75 26.75C46.75 25.3693 45.0711 24.25 43 24.25C40.9289 24.25 39.25 25.3693 39.25 26.75C39.25 28.1307 40.9289 29.25 43 29.25Z" fill="#39285E"/>
<path d="M43 19.25C45.7195 19.25 48.3779 20.0564 50.6391 21.5673C52.9003 23.0782 54.6626 25.2256 55.7033 27.7381C56.744 30.2506 57.0163 33.0153 56.4858 35.6825C55.9553 38.3497 54.6457 40.7997 52.7227 42.7227C50.7997 44.6457 48.3497 45.9553 45.6825 46.4858C43.0153 47.0163 40.2506 46.744 37.7381 45.7033C35.2256 44.6626 33.0782 42.9003 31.5673 40.6391C30.0564 38.3779 29.25 35.7195 29.25 33C29.249 31.194 29.604 29.4056 30.2946 27.7369C30.9853 26.0683 31.9981 24.5521 33.2751 23.2751C34.5521 21.9981 36.0683 20.9853 37.7369 20.2947C39.4056 19.604 41.194 19.249 43 19.25ZM46.75 26.75C46.75 25.375 45.075 24.25 43 24.25C40.925 24.25 39.25 25.375 39.25 26.75C39.25 28.125 40.925 29.25 43 29.25C45.075 29.25 46.75 28.125 46.75 26.75Z" fill="#7E6DD4"/>
<path d="M43 19.25C40.2805 19.25 37.6221 20.0564 35.3609 21.5673C33.0997 23.0782 31.3374 25.2256 30.2967 27.7381C29.256 30.2506 28.9837 33.0153 29.5142 35.6825C30.0448 38.3497 31.3543 40.7997 33.2773 42.7227C35.2003 44.6457 37.6503 45.9553 40.3175 46.4858C42.9848 47.0163 45.7494 46.744 48.2619 45.7033C50.7744 44.6626 52.9218 42.9003 54.4327 40.6391C55.9436 38.3779 56.75 35.7195 56.75 33C56.751 31.194 56.396 29.4056 55.7054 27.7369C55.0147 26.0683 54.0019 24.5521 52.7249 23.2751C51.4479 21.9981 49.9317 20.9853 48.2631 20.2947C46.5944 19.604 44.806 19.249 43 19.25ZM43 40.5C36.0913 40.5 30.5 36.0275 30.5 30.5C30.5 24.9725 36.0913 20.5 43 20.5C49.9088 20.5 55.5 24.9725 55.5 30.5C55.5 36.0275 49.9088 40.5 43 40.5Z" fill="#5F4A9E"/>
<path d="M43 31.75C47.8325 31.75 51.75 29.2316 51.75 26.125C51.75 23.0184 47.8325 20.5 43 20.5C38.1675 20.5 34.25 23.0184 34.25 26.125C34.25 29.2316 38.1675 31.75 43 31.75Z" fill="#9883FF"/>
<path d="M43 30.5C45.7614 30.5 48 28.8211 48 26.75C48 24.6789 45.7614 23 43 23C40.2386 23 38 24.6789 38 26.75C38 28.8211 40.2386 30.5 43 30.5Z" fill="#5F4A9E"/>
<path d="M43 29.25C45.0711 29.25 46.75 28.1307 46.75 26.75C46.75 25.3693 45.0711 24.25 43 24.25C40.9289 24.25 39.25 25.3693 39.25 26.75C39.25 28.1307 40.9289 29.25 43 29.25Z" fill="#39285E"/>
<path d="M43 25.5C43.7189 25.4345 44.4415 25.5762 45.0824 25.9085C45.7233 26.2408 46.2555 26.7497 46.6163 27.375C46.6997 27.1769 46.7451 26.9649 46.75 26.75C46.75 25.375 45.075 24.25 43 24.25C40.925 24.25 39.25 25.375 39.25 26.75C39.2549 26.9649 39.3003 27.1769 39.3838 27.375C39.7445 26.7497 40.2767 26.2408 40.9176 25.9085C41.5585 25.5762 42.2811 25.4345 43 25.5Z" fill="#261647"/>
<path d="M52.4075 28.0062C52.3175 28.0193 52.2299 28.0454 52.1475 28.0837C51.4525 28.3962 51.0425 29.3337 50.5475 29.8825C49.1896 31.3842 47.4141 32.4463 45.4487 32.9325C45.232 32.9501 45.0213 33.0124 44.8298 33.1154C44.6384 33.2184 44.4703 33.36 44.3362 33.5312C44.2534 33.729 44.2375 33.9484 44.291 34.156C44.3444 34.3637 44.4644 34.5481 44.6325 34.6812C44.9742 34.9358 45.3736 35.1019 45.795 35.165C47.3654 35.6032 49.0253 35.6067 50.5975 35.175C51.3505 34.908 52.0408 34.4897 52.626 33.9458C53.2112 33.4019 53.6788 32.744 54 32.0125C54.2007 31.5437 54.2757 31.0307 54.2176 30.5241C54.1595 30.0176 53.9703 29.5349 53.6687 29.1237C53.355 28.6062 53.0075 27.9262 52.4075 28.0062Z" fill="#9883FF"/>
<path d="M18 20.5C20.0711 20.5 21.75 19.3807 21.75 18C21.75 16.6193 20.0711 15.5 18 15.5C15.9289 15.5 14.25 16.6193 14.25 18C14.25 19.3807 15.9289 20.5 18 20.5Z" fill="#39285E"/>
<path d="M31.75 24.25C31.75 26.9695 30.9436 29.6279 29.4327 31.8891C27.9218 34.1503 25.7744 35.9126 23.2619 36.9533C20.7494 37.994 17.9848 38.2663 15.3175 37.7358C12.6503 37.2053 10.2003 35.8957 8.27729 33.9727C6.35432 32.0497 5.04476 29.5997 4.51421 26.9325C3.98366 24.2653 4.25596 21.5006 5.29666 18.9881C6.33737 16.4756 8.09974 14.3282 10.3609 12.8173C12.6221 11.3064 15.2805 10.5 18 10.5C19.806 10.499 21.5944 10.854 23.2631 11.5447C24.9317 12.2353 26.4479 13.2481 27.7249 14.5251C29.0019 15.8021 30.0147 17.3183 30.7054 18.9869C31.396 20.6556 31.751 22.444 31.75 24.25ZM21.75 18C21.75 16.625 20.075 15.5 18 15.5C15.925 15.5 14.25 16.625 14.25 18C14.25 19.375 15.925 20.5 18 20.5C20.075 20.5 21.75 19.375 21.75 18Z" fill="#6F60BA"/>
<path d="M18 10.5C15.2805 10.5 12.6221 11.3064 10.3609 12.8173C8.09974 14.3282 6.33737 16.4756 5.29666 18.9881C4.25596 21.5006 3.98366 24.2653 4.51421 26.9325C5.04476 29.5997 6.35432 32.0497 8.27729 33.9727C10.2003 35.8957 12.6503 37.2053 15.3175 37.7358C17.9848 38.2663 20.7494 37.994 23.2619 36.9533C25.7744 35.9126 27.9218 34.1503 29.4327 31.8891C30.9436 29.6279 31.75 26.9695 31.75 24.25C31.751 22.444 31.396 20.6556 30.7054 18.9869C30.0147 17.3183 29.0019 15.8021 27.7249 14.5251C26.4479 13.2481 24.9317 12.2353 23.2631 11.5447C21.5944 10.854 19.806 10.499 18 10.5ZM18 31.75C11.0913 31.75 5.50001 27.2775 5.50001 21.75C5.50001 16.2225 11.0913 11.75 18 11.75C24.9088 11.75 30.5 16.2225 30.5 21.75C30.5 27.2775 24.9088 31.75 18 31.75Z" fill="#483584"/>
<path d="M18 23C22.8325 23 26.75 20.4816 26.75 17.375C26.75 14.2684 22.8325 11.75 18 11.75C13.1675 11.75 9.25 14.2684 9.25 17.375C9.25 20.4816 13.1675 23 18 23Z" fill="#9883FF"/>
<path d="M18 21.75C20.7614 21.75 23 20.0711 23 18C23 15.9289 20.7614 14.25 18 14.25C15.2386 14.25 13 15.9289 13 18C13 20.0711 15.2386 21.75 18 21.75Z" fill="#5F4A9E"/>
<path d="M18 20.5C20.0711 20.5 21.75 19.3807 21.75 18C21.75 16.6193 20.0711 15.5 18 15.5C15.9289 15.5 14.25 16.6193 14.25 18C14.25 19.3807 15.9289 20.5 18 20.5Z" fill="#39285E"/>
<path d="M18 16.75C18.7189 16.6845 19.4415 16.8262 20.0824 17.1585C20.7233 17.4908 21.2555 17.9997 21.6162 18.625C21.6997 18.4269 21.7451 18.2149 21.75 18C21.75 16.625 20.075 15.5 18 15.5C15.925 15.5 14.25 16.625 14.25 18C14.2549 18.2149 14.3003 18.4269 14.3838 18.625C14.7445 17.9997 15.2767 17.4908 15.9176 17.1585C16.5585 16.8262 17.2811 16.6845 18 16.75Z" fill="#261647"/>
<path d="M27.4075 19.2562C27.3175 19.2693 27.2299 19.2954 27.1475 19.3337C26.4525 19.6462 26.0425 20.5837 25.5475 21.1325C24.1896 22.6342 22.4141 23.6963 20.4487 24.1825C20.232 24.2001 20.0213 24.2624 19.8298 24.3654C19.6384 24.4684 19.4703 24.61 19.3362 24.7812C19.2534 24.979 19.2375 25.1984 19.291 25.406C19.3444 25.6137 19.4644 25.7981 19.6325 25.9312C19.9742 26.1858 20.3735 26.3519 20.795 26.415C22.3654 26.8532 24.0253 26.8567 25.5975 26.425C26.3505 26.158 27.0408 25.7397 27.626 25.1958C28.2112 24.6519 28.6788 23.994 29 23.2625C29.2007 22.7937 29.2757 22.2807 29.2176 21.7741C29.1595 21.2676 28.9703 20.7849 28.6687 20.3737C28.355 19.8562 28.0075 19.1762 27.4075 19.2562Z" fill="#7E6DD4"/>
<path d="M9.26873 34.875C11.7271 32.8496 14.8147 31.7445 18 31.75C15.5253 31.7674 13.0862 31.1598 10.9087 29.9838C9.57331 30.7829 8.3831 31.8028 7.38873 33C7.95402 33.6837 8.58357 34.3116 9.26873 34.875Z" fill="#39285E"/>
<path d="M30.4838 21.4912C30.0472 21.7739 29.6269 22.0811 29.225 22.4112C29.1975 22.7049 29.1233 22.9923 29.005 23.2625C28.4143 24.5765 27.3613 25.6277 26.0463 26.2162C25.4246 27.3133 24.9577 28.4911 24.6588 29.7162C22.5468 28.5449 20.1629 27.9524 17.7483 27.9987C15.3337 28.0451 12.9742 28.7285 10.9088 29.98C12.9975 31.0888 15.3171 31.6924 17.6814 31.7424C20.0457 31.7923 22.3888 31.2871 24.5225 30.2675C24.7138 30.1737 24.9075 30.0812 25.0913 29.98C26.6511 29.2233 27.9773 28.0589 28.9295 26.6101C29.8816 25.1613 30.4243 23.482 30.5 21.75C30.5 21.6625 30.4863 21.5775 30.4838 21.4912Z" fill="#483584"/>
<path d="M31.3413 20.97C31.0475 21.1325 30.7625 21.3087 30.4837 21.4912C30.4837 21.5775 30.5 21.6625 30.5 21.75C30.425 23.4826 29.8826 25.1628 28.9304 26.6123C27.9782 28.0618 26.6516 29.2268 25.0913 29.9837C24.9075 30.085 24.7163 30.1775 24.5225 30.2712C22.4895 31.255 20.2585 31.7608 18 31.75C21.1821 31.7626 24.2638 32.8656 26.7313 34.875C27.4147 34.3113 28.0425 33.6834 28.6063 33C28.8488 32.7062 29.0738 32.3975 29.2913 32.0837C29.4494 29.6018 30.2818 27.2101 31.6987 25.1662C31.7188 24.8625 31.745 24.5587 31.745 24.25C31.7425 23.1444 31.6069 22.0431 31.3413 20.97Z" fill="#39285E"/>
<path d="M29 23.2625C29.1183 22.9923 29.1925 22.7049 29.22 22.4113C27.9393 23.4772 26.8623 24.7663 26.0413 26.2163C27.3563 25.6278 28.4093 24.5766 29 23.2625Z" fill="#5F4A9E"/>
<path d="M10.5 49.25C11.8807 49.25 13 47.5711 13 45.5C13 43.4289 11.8807 41.75 10.5 41.75C9.11929 41.75 8 43.4289 8 45.5C8 47.5711 9.11929 49.25 10.5 49.25Z" fill="#39285E"/>
<path d="M18 31.75C20.7195 31.75 23.3779 32.5564 25.6391 34.0673C27.9003 35.5782 29.6626 37.7256 30.7033 40.2381C31.744 42.7506 32.0163 45.5153 31.4858 48.1825C30.9553 50.8497 29.6457 53.2997 27.7227 55.2227C25.7997 57.1457 23.3497 58.4553 20.6825 58.9858C18.0153 59.5163 15.2506 59.244 12.7381 58.2033C10.2256 57.1626 8.07816 55.4003 6.56729 53.1391C5.05643 50.8779 4.25 48.2195 4.25 45.5C4.24902 43.694 4.604 41.9056 5.29465 40.2369C5.9853 38.5683 6.99808 37.0521 8.27509 35.7751C9.55209 34.4981 11.0683 33.4853 12.7369 32.7946C14.4056 32.104 16.194 31.749 18 31.75ZM13 45.5C13 43.425 11.875 41.75 10.5 41.75C9.125 41.75 8 43.425 8 45.5C8 47.575 9.125 49.25 10.5 49.25C11.875 49.25 13 47.575 13 45.5Z" fill="#7E6DD4"/>
<path d="M4.25 45.5C4.25 48.2195 5.05643 50.8779 6.56729 53.1391C8.07816 55.4003 10.2256 57.1626 12.7381 58.2033C15.2506 59.244 18.0153 59.5163 20.6825 58.9858C23.3497 58.4553 25.7997 57.1457 27.7227 55.2227C29.6457 53.2997 30.9553 50.8497 31.4858 48.1825C32.0163 45.5153 31.744 42.7506 30.7033 40.2381C29.6626 37.7256 27.9003 35.5782 25.6391 34.0673C23.3779 32.5564 20.7195 31.75 18 31.75C16.194 31.749 14.4056 32.104 12.7369 32.7946C11.0683 33.4853 9.55209 34.4981 8.27509 35.7751C6.99808 37.0521 5.9853 38.5683 5.29465 40.2369C4.604 41.9056 4.24902 43.694 4.25 45.5ZM25.5 45.5C25.5 52.4088 21.0275 58 15.5 58C9.9725 58 5.5 52.4088 5.5 45.5C5.5 38.5913 9.9725 33 15.5 33C21.0275 33 25.5 38.5913 25.5 45.5Z" fill="#5F4A9E"/>
<path d="M11.125 54.25C14.2316 54.25 16.75 50.3325 16.75 45.5C16.75 40.6675 14.2316 36.75 11.125 36.75C8.0184 36.75 5.5 40.6675 5.5 45.5C5.5 50.3325 8.0184 54.25 11.125 54.25Z" fill="#9883FF"/>
<path d="M10.5 50.5C12.5711 50.5 14.25 48.2614 14.25 45.5C14.25 42.7386 12.5711 40.5 10.5 40.5C8.42893 40.5 6.75 42.7386 6.75 45.5C6.75 48.2614 8.42893 50.5 10.5 50.5Z" fill="#5F4A9E"/>
<path d="M10.5 49.25C11.8807 49.25 13 47.5711 13 45.5C13 43.4289 11.8807 41.75 10.5 41.75C9.11929 41.75 8 43.4289 8 45.5C8 47.5711 9.11929 49.25 10.5 49.25Z" fill="#39285E"/>
<path d="M9.25 45.5C9.18446 44.7811 9.32623 44.0585 9.65851 43.4176C9.99079 42.7767 10.4997 42.2445 11.125 41.8837C10.9269 41.8003 10.7149 41.7549 10.5 41.75C9.125 41.75 8 43.425 8 45.5C8 47.575 9.125 49.25 10.5 49.25C10.7149 49.2451 10.9269 49.1997 11.125 49.1163C10.4997 48.7555 9.99079 48.2233 9.65851 47.5824C9.32623 46.9415 9.18446 46.2189 9.25 45.5Z" fill="#261647"/>
<path d="M14 36.0088C14.0133 36.0987 14.0394 36.1863 14.0775 36.2688C14.3913 36.9638 15.335 37.3738 15.8775 37.8675C17.3785 39.2263 18.4401 41.0021 18.9263 42.9675C18.9439 43.1844 19.0064 43.3952 19.1097 43.5867C19.2129 43.7781 19.3548 43.9461 19.5263 44.08C19.7238 44.1628 19.943 44.1786 20.1505 44.1252C20.3579 44.0717 20.5421 43.9518 20.675 43.7838C20.9296 43.442 21.0957 43.0427 21.1588 42.6213C21.5973 41.0505 21.6007 39.3901 21.1688 37.8175C20.9024 37.0638 20.4843 36.3726 19.9404 35.7868C19.3965 35.2009 18.7382 34.7328 18.0063 34.4113C17.5375 34.2106 17.0245 34.1356 16.5179 34.1937C16.0113 34.2517 15.5287 34.4409 15.1175 34.7425C14.6063 35.0613 13.9263 35.4075 14 36.0088Z" fill="#9883FF"/>
<path d="M31.75 24.1325C32.1475 24.2125 32.375 24.25 32.375 24.25L32.4088 24.2288C32.6213 23.9713 32.8512 23.7287 33.0825 23.4875C33.9802 21.8453 34.3856 19.9791 34.25 18.1125C34.25 18.1125 34.25 4.8125 21.125 1.75C20.0697 4.57592 19.4787 7.554 19.375 10.5688C22.7475 10.9051 25.8767 12.4761 28.161 14.9799C30.4453 17.4836 31.7236 20.7434 31.75 24.1325Z" fill="#4E8C00"/>
<path d="M43 19.25C46.5678 19.2479 49.9955 20.6382 52.5538 23.125C53.4633 22.3274 54.1954 21.348 54.7029 20.2499C55.2103 19.1518 55.4819 17.9595 55.5 16.75C55.5 6.75 53 1.75 53 1.75C48.8105 7.22853 45.1681 13.1045 42.125 19.2938C42.415 19.2763 42.705 19.25 43 19.25Z" fill="#63B300"/>
<path d="M53 1.75C36.8175 5.2175 35.6 19.3638 35.5087 21.4763C37.4885 20.1893 39.768 19.4374 42.125 19.2938C45.168 13.1045 48.8104 7.22853 53 1.75Z" fill="#4E8C00"/>
<path d="M44.7188 14.375C43.8438 15.9225 42.9688 17.5662 42.125 19.3C42.415 19.2825 42.705 19.2562 43 19.2562C46.5678 19.2542 49.9955 20.6444 52.5538 23.1312C53.3491 22.3832 54.02 21.5131 54.5413 20.5537C53.4541 18.8695 52.0114 17.4436 50.3145 16.3762C48.6176 15.3088 46.7077 14.6258 44.7188 14.375Z" fill="#4E8C00"/>
<path d="M42.125 19.2938C42.975 17.56 43.85 15.9188 44.7187 14.3688C44.1488 14.2937 43.5748 14.2541 43 14.25C40.7717 14.2489 38.5768 14.7921 36.6062 15.8325C35.992 17.6568 35.6229 19.5547 35.5087 21.4763C37.4885 20.1893 39.768 19.4374 42.125 19.2938Z" fill="#3F7000"/>
<path d="M20 5.76501C19.692 7.35171 19.4833 8.95608 19.375 10.5688C22.7475 10.9051 25.8767 12.4761 28.161 14.9799C30.4453 17.4836 31.7236 20.7434 31.75 24.1325C32.1475 24.2125 32.375 24.25 32.375 24.25L32.4088 24.2288C32.6213 23.9713 32.8512 23.7288 33.0825 23.4875C33.9802 21.8453 34.3856 19.9792 34.25 18.1125C34.1944 16.5801 33.9466 15.0607 33.5125 13.59C30.203 9.31723 25.3532 6.50874 20 5.76501Z" fill="#3F7000"/>
<path d="M52.5283 27.5516C53.3338 26.7462 53.0777 25.1842 51.9564 24.0629C50.8351 22.9416 49.2732 22.6856 48.4677 23.4911C47.6623 24.2965 47.9183 25.8585 49.0396 26.9797C50.1609 28.101 51.7229 28.3571 52.5283 27.5516Z" fill="#F6FAFD"/>
<path d="M17.5195 40.0404C18.325 39.2349 18.069 37.673 16.9477 36.5517C15.8264 35.4304 14.2644 35.1744 13.459 35.9798C12.6535 36.7853 12.9096 38.3472 14.0309 39.4685C15.1522 40.5898 16.7141 40.8458 17.5195 40.0404Z" fill="#F6FAFD"/>
<path d="M36.2746 35.0466C37.08 34.2412 36.824 32.6792 35.7027 31.5579C34.5814 30.4366 33.0194 30.1806 32.214 30.9861C31.4085 31.7915 31.6646 33.3534 32.7859 34.4747C33.9072 35.596 35.4691 35.8521 36.2746 35.0466Z" fill="#C4B0FF"/>
<path d="M51.5112 31.5359C51.9139 31.1332 51.7861 30.3524 51.2257 29.792C50.6653 29.2316 49.8845 29.1038 49.4818 29.5065C49.0791 29.9092 49.2069 30.69 49.7673 31.2504C50.3277 31.8108 51.1085 31.9386 51.5112 31.5359Z" fill="#F6FAFD"/>
<path d="M26.5112 20.276C26.9139 19.8733 26.7861 19.0925 26.2257 18.5321C25.6653 17.9717 24.8845 17.8439 24.4818 18.2466C24.0791 18.6494 24.2069 19.4301 24.7673 19.9905C25.3277 20.5509 26.1085 20.6788 26.5112 20.276Z" fill="#F6FAFD"/>
<path d="M25.6874 16.6437C25.889 16.4421 25.8253 16.0515 25.5451 15.7713C25.2649 15.4911 24.8743 15.4274 24.6727 15.629C24.4711 15.8306 24.5348 16.2212 24.815 16.5014C25.0952 16.7816 25.4858 16.8453 25.6874 16.6437Z" fill="#F6FAFD"/>
<path d="M57.75 30.2737L55.2912 30.7262C55.4291 31.4763 55.4989 32.2373 55.5 33C55.5023 35.003 55.0232 36.9772 54.1031 38.7564C53.183 40.5356 51.8488 42.0676 50.2128 43.2234C48.5769 44.3792 46.6872 45.125 44.7028 45.3978C42.7185 45.6707 40.6976 45.4627 38.8104 44.7913C36.9233 44.12 35.2251 43.005 33.8589 41.5402C32.4927 40.0754 31.4985 38.3037 30.9601 36.3744C30.4216 34.4451 30.3547 32.4147 30.765 30.4541C31.1753 28.4935 32.0507 26.6603 33.3175 25.1087C33.5985 24.8704 33.8457 24.5949 34.0525 24.29C35.509 22.7892 37.3192 21.6783 39.3169 21.0593C41.3146 20.4403 43.4357 20.333 45.4857 20.7472C47.5356 21.1614 49.4487 22.0839 51.0492 23.43C52.6498 24.7761 53.8867 26.5027 54.6462 28.4512L56.9762 27.5412C56.3419 25.9224 55.4332 24.425 54.29 23.115C55.867 21.3694 56.7431 19.1024 56.75 16.75C56.75 6.57122 54.225 1.40622 54.125 1.19122C54.0008 0.94175 53.7968 0.740935 53.5454 0.620676C53.294 0.500417 53.0097 0.467611 52.7375 0.527469C41.3312 2.97247 36.9625 10.5637 35.2887 15.9675C34.6462 11.8487 32.0387 3.01622 21.4137 0.532469C21.1329 0.466718 20.8379 0.500125 20.5789 0.627023C20.3199 0.753921 20.1127 0.966502 19.9925 1.22872C19.0135 3.80488 18.4237 6.51251 18.2425 9.26247C18.1637 9.26247 18.0862 9.24997 18.0075 9.24997C15.2607 9.24902 12.5664 10.0023 10.2185 11.4276C7.87046 12.853 5.95893 14.8957 4.69231 17.333C3.4257 19.7703 2.85263 22.5086 3.03562 25.2492C3.2186 27.9899 4.15061 30.6277 5.72999 32.875L7.77249 31.435C6.64312 29.8277 5.90843 27.9769 5.62801 26.0327C5.3476 24.0885 5.52934 22.1055 6.15851 20.2446C6.78769 18.3838 7.84657 16.6974 9.24929 15.3222C10.652 13.947 12.3591 12.9218 14.2321 12.3297C16.1051 11.7376 18.0913 11.5952 20.0296 11.9142C21.9678 12.2331 23.8037 13.0044 25.3882 14.1654C26.9727 15.3265 28.2613 16.8446 29.1494 18.5967C30.0376 20.3488 30.5003 22.2856 30.5 24.25C30.5 24.4237 30.4837 24.5925 30.4762 24.7637C28.8595 27.2062 27.9983 30.0709 28 33C28 33.4787 28.0275 33.95 28.0712 34.4162C25.5248 32.1123 22.2641 30.7533 18.8351 30.567C15.4062 30.3807 12.0174 31.3783 9.23635 33.3928C6.4553 35.4072 4.45094 38.3162 3.55903 41.6323C2.66711 44.9485 2.94181 48.4704 4.33711 51.6081C5.73241 54.7459 8.16356 57.3088 11.2233 58.8677C14.2831 60.4266 17.7856 60.8868 21.1442 60.171C24.5027 59.4553 27.5134 57.6072 29.6717 54.9363C31.8301 52.2654 33.0051 48.934 33 45.5C33 45.0212 32.9725 44.55 32.9287 44.0837C35.0746 46.0434 37.7444 47.3363 40.6124 47.8048C43.4805 48.2733 46.4228 47.8971 49.0807 46.722C51.7387 45.547 53.9972 43.6239 55.581 41.1874C57.1647 38.7508 58.0052 35.906 58 33C57.9995 32.0855 57.9158 31.173 57.75 30.2737ZM54.25 16.75C54.2455 18.4512 53.6201 20.0923 52.4912 21.365C50.1185 19.4273 47.2065 18.2676 44.1512 18.0437C46.6332 13.271 49.4656 8.68889 52.625 4.33497C53.7769 8.37033 54.3245 12.5541 54.25 16.75ZM49.7987 3.96497C46.6253 8.45873 43.7924 13.1836 41.3237 18.1C39.8349 18.2663 38.3797 18.6565 37.0075 19.2575C37.5437 15.7848 39.0186 12.5248 41.273 9.82953C43.5274 7.13429 46.4755 5.10639 49.7987 3.96497ZM20.7125 9.50872C20.8934 7.38677 21.2939 5.2893 21.9075 3.24997C32.825 6.48122 33 17.625 33 18.1137C33.017 19.1461 32.9104 20.1767 32.6825 21.1837C32.0677 18.2711 30.6019 15.6065 28.4709 13.528C26.3398 11.4495 23.6396 10.0506 20.7125 9.50872ZM18 58C15.5277 58 13.111 57.2669 11.0554 55.8933C8.99975 54.5198 7.39759 52.5676 6.4515 50.2835C5.5054 47.9994 5.25786 45.4861 5.74018 43.0613C6.22249 40.6366 7.413 38.4093 9.16116 36.6611C10.9093 34.913 13.1366 33.7225 15.5614 33.2402C17.9861 32.7578 20.4995 33.0054 22.7835 33.9515C25.0676 34.8976 27.0198 36.4997 28.3934 38.5553C29.7669 40.611 30.5 43.0277 30.5 45.5C30.4964 48.8141 29.1782 51.9914 26.8348 54.3348C24.4914 56.6782 21.3141 57.9963 18 58Z" fill="#001A1F"/>
<path d="M10.5 40.5C8.39625 40.5 6.75 42.6962 6.75 45.5C6.75 48.3038 8.39625 50.5 10.5 50.5C12.6037 50.5 14.25 48.3038 14.25 45.5C14.25 42.6962 12.6037 40.5 10.5 40.5ZM10.5 48C9.99 48 9.25 47.0262 9.25 45.5C9.25 43.9738 9.99 43 10.5 43C11.01 43 11.75 43.9738 11.75 45.5C11.75 47.0262 11.01 48 10.5 48Z" fill="#001A1F"/>
<path d="M23 18C23 15.8963 20.8038 14.25 18 14.25C15.1962 14.25 13 15.8963 13 18C13 20.1037 15.1962 21.75 18 21.75C20.8038 21.75 23 20.1037 23 18ZM15.5 18C15.5 17.49 16.4738 16.75 18 16.75C19.5262 16.75 20.5 17.49 20.5 18C20.5 18.51 19.5262 19.25 18 19.25C16.4738 19.25 15.5 18.51 15.5 18Z" fill="#001A1F"/>
<path d="M38 26.75C38 28.8537 40.1962 30.5 43 30.5C45.8038 30.5 48 28.8537 48 26.75C48 24.6463 45.8038 23 43 23C40.1962 23 38 24.6463 38 26.75ZM45.5 26.75C45.5 27.26 44.5262 28 43 28C41.4738 28 40.5 27.26 40.5 26.75C40.5 26.24 41.4738 25.5 43 25.5C44.5262 25.5 45.5 26.24 45.5 26.75Z" fill="#001A1F"/>
</g>
<defs>
<clipPath id="clip0_1_463">
<rect width="60" height="60" fill="white" transform="translate(0.5 0.5)"/>
</clipPath>
</defs>
</svg>
