<svg width="61" height="61" viewBox="0 0 61 61" fill="none" xmlns="http://www.w3.org/2000/svg">
<g clip-path="url(#clip0_1_274)">
<path d="M58.5988 15.5072C57.5912 13.9351 55.9195 13.2052 54.2958 13.3164C56.4423 11.5315 56.5547 8.32822 54.6203 6.39381C52.6851 4.45869 49.482 4.57272 47.6976 6.7183C47.809 5.09455 47.0791 3.42276 45.5068 2.41529C42.4853 0.475607 38.4228 2.64088 38.3382 6.28483C38.2813 8.71694 37.336 12.1853 36.2177 16.5932V16.5944C37.902 17.5089 39.47 18.8471 40.8184 20.1957C42.1747 21.5519 43.505 23.1122 44.4208 24.7963C49.383 23.5373 52.4292 22.7297 54.7292 22.6758C58.3625 22.5913 60.5433 18.5362 58.5988 15.5072Z" fill="#85E374"/>
<path d="M39.8307 37.5883C26.1601 46.8786 5.56451 62.282 2.14826 58.8658C-1.26799 55.4496 14.1354 34.8552 23.4269 21.1834C28.5638 13.6248 34.243 13.6204 40.8184 20.1957C47.3567 26.7341 47.4314 32.4228 39.8307 37.5883Z" fill="#FEA832"/>
<path d="M34.8646 27.8072C35.3215 27.3491 35.3215 26.6075 34.8646 26.1494C34.4065 25.6925 33.6649 25.6925 33.2068 26.1494C32.7499 26.6075 32.7499 27.3491 33.2068 27.8072C33.6649 28.2641 34.4066 28.2641 34.8646 27.8072Z" fill="black"/>
<path d="M19.9532 42.7186C20.4102 42.2605 20.4102 41.5189 19.9532 41.0608C19.4952 40.6039 18.7536 40.6039 18.2955 41.0608C17.8386 41.5189 17.8386 42.2605 18.2955 42.7186C18.7536 43.1755 19.4952 43.1755 19.9532 42.7186Z" fill="black"/>
<path d="M40.4893 38.5572C45.2793 35.3018 48.2526 31.006 46.087 25.5874C49.1164 24.8285 52.5131 23.8995 54.7564 23.847C59.3036 23.7415 62.0247 18.6756 59.5851 14.875C58.829 13.6951 57.7419 12.854 56.4929 12.4353C57.6455 10.25 57.3277 7.4443 55.4487 5.56532C53.5925 3.7093 50.7902 3.36161 48.5796 4.5227C48.1611 3.2729 47.3198 2.18575 46.1398 1.42954C42.3461 -1.00597 37.2729 1.70317 37.167 6.25754C37.1133 8.54809 36.1533 12.0268 35.4264 14.928C30.0072 12.7618 25.7117 15.7371 22.458 20.5249C17.1249 28.3718 9.60404 38.7452 4.95732 46.6432C0.624552 54.0079 -0.463417 57.9109 1.31971 59.6942C5.49346 63.868 22.5602 50.7418 40.4893 38.5572ZM57.6128 16.1401C59.0532 18.3841 57.4438 21.4409 54.7015 21.5048C52.0566 21.5668 48.4821 22.5717 44.9887 23.4468C44.4952 22.6557 43.9027 21.8575 43.2003 21.0383C55.0978 14.2827 54.2671 14.7897 54.7021 14.4794C55.881 14.5046 56.9518 15.1087 57.6128 16.1401ZM53.7918 7.22223C55.4503 8.88067 55.0468 11.681 52.9761 12.8018C52.9694 12.8054 52.963 12.8091 52.9563 12.8128L41.974 19.0399L48.2013 8.05766C48.2049 8.0511 48.2085 8.04465 48.2122 8.03809C49.3403 5.9559 52.1425 5.57282 53.7918 7.22223ZM39.5094 6.31215C39.5733 3.56317 42.6393 1.96661 44.8748 3.40169C45.9055 4.06215 46.509 5.13337 46.5347 6.31204C46.221 6.75196 46.7087 5.95684 39.9758 17.814C39.1551 17.1106 38.3569 16.5181 37.5672 16.0258C38.5359 12.1582 39.4497 8.86251 39.5094 6.31215ZM3.36147 55.0489C3.99662 53.2575 5.21315 50.8291 6.97693 47.8312C7.72846 46.5538 8.56061 45.2047 9.44771 43.8103L11.6692 46.0317C12.1269 46.4892 12.8684 46.4892 13.3262 46.0317C13.7837 45.5742 13.7837 44.8324 13.3262 44.3749L10.7466 41.7955C12.8476 38.5749 15.1694 35.1848 17.4336 31.9142L21.6096 36.0911C22.0669 36.5485 22.8087 36.549 23.2665 36.0913C23.724 35.6338 23.7241 34.8921 23.2667 34.4345L18.7907 29.9574C20.6853 27.2293 22.6716 24.379 24.3959 21.8418C24.8065 21.2375 25.2125 20.6977 25.6135 20.2138L29.8938 24.4931C30.3514 24.9505 31.093 24.9506 31.5507 24.493C32.0081 24.0354 32.0079 23.2937 31.5504 22.8362L27.2398 18.5266C31.6126 14.719 35.8743 16.9085 39.9901 21.0242C46.1428 27.1748 46.0089 31.9732 39.1724 36.6195C38.441 37.1166 37.6918 37.6299 36.9283 38.1556L33.2074 34.4347C32.7497 33.9772 32.0082 33.9772 31.5504 34.4347C31.0929 34.8922 31.0929 35.634 31.5504 36.0916L34.9683 39.5095C31.7796 41.7185 28.5126 44.0041 25.1743 46.2827L23.2669 44.3754C22.8094 43.9179 22.0679 43.9179 21.61 44.3754C21.1525 44.8329 21.1525 45.5747 21.61 46.0322L23.2006 47.6227C18.951 50.4908 10.775 55.9476 5.96572 57.6529C3.50397 58.5259 2.99736 58.0581 2.97697 58.0379C2.95623 58.017 2.48842 57.5109 3.36147 55.0489Z" fill="black"/>
</g>
<defs>
<clipPath id="clip0_1_274">
<rect width="60" height="60" fill="white" transform="translate(0.5 0.5)"/>
</clipPath>
</defs>
</svg>
