<svg width="48" height="43" viewBox="0 0 48 43" fill="none" xmlns="http://www.w3.org/2000/svg">
<path d="M4.87187 13.0019C3.55948 21.8627 8.95673 27.0032 16.4767 26.8222C23.9967 26.6412 32.192 28.141 34.3092 20.0787C36.1193 13.1856 32.812 10.3327 23.7244 6.83451C14.6368 3.33632 6.18426 4.14118 4.87187 13.0019Z" fill="#CA8E34"/>
<path fill-rule="evenodd" clip-rule="evenodd" d="M6.43151 24.1372C8.84761 26.8317 12.4576 28.1693 16.5068 28.0718C17.6238 28.045 18.7169 28.0554 19.8263 28.0659C20.5872 28.0732 21.3558 28.0805 22.1451 28.0759C24.0229 28.065 25.9169 27.9837 27.6659 27.6313C29.4222 27.2775 31.0976 26.6381 32.492 25.4646C33.8998 24.2799 34.9329 22.6251 35.5182 20.3962C36.4889 16.6994 36.1418 13.7909 34.0497 11.3668C32.0853 9.09061 28.7043 7.41207 24.1734 5.66795C19.5213 3.87714 14.8476 3.10867 11.0732 4.07247C9.16173 4.56055 7.46564 5.49848 6.15644 6.98069C4.8488 8.46113 3.99201 10.4109 3.63537 12.8188C2.93677 17.5355 4.00779 21.4343 6.43151 24.1372ZM16.4767 26.8222C8.95674 27.0032 3.55949 21.8627 4.87188 13.0019C6.18427 4.14117 14.6368 3.33632 23.7244 6.83451C32.812 10.3327 36.1193 13.1856 34.3092 20.0787C32.5091 26.9335 26.3153 26.876 19.8785 26.8162C18.7445 26.8057 17.603 26.7951 16.4767 26.8222Z" fill="#855D22"/>
<path d="M17.1218 7.26619C17.9231 8.85748 16.0712 10.553 13.6843 11.7551C11.2973 12.9571 8.52853 13.3464 7.72715 11.7551C6.92577 10.1638 8.21112 7.89931 10.5981 6.69724C12.985 5.49516 16.3204 5.6749 17.1218 7.26619Z" fill="#DB9F45"/>
<path fill-rule="evenodd" clip-rule="evenodd" d="M4.81214 13.4401C5.62087 15.5568 7.04305 17.4331 9.32586 18.1956C15.2938 20.1888 27.5219 17.2363 25.7017 9.80348C25.4563 8.8015 25.0483 7.92079 24.5182 7.14429C33.0039 10.5055 36.0656 13.3901 34.3093 20.0786C32.5092 26.9334 26.3154 26.8759 19.8785 26.8162C18.7446 26.8056 17.6031 26.795 16.4768 26.8222C9.08168 27.0002 3.73938 22.0318 4.81214 13.4401Z" fill="#AA7A32"/>
<path d="M44.3039 23.4094C42.7755 15.5246 34.6258 10.5053 25.4853 17.2261C16.3449 23.947 8.54865 21.2587 9.252 29.3346C9.87036 36.4344 19.84 37.9266 28.1738 37.9266C36.5075 37.9266 45.5162 30.4323 44.3039 23.4094Z" fill="#DD9B38"/>
<path fill-rule="evenodd" clip-rule="evenodd" d="M45.5335 23.1842L45.531 23.1716C44.6996 18.8825 42.0441 15.2713 38.2287 13.6864C34.3725 12.0845 29.5912 12.6557 24.7449 16.2191C21.3082 18.7461 18.135 19.858 15.402 20.8156C14.6394 21.0828 13.9112 21.338 13.221 21.6085C11.6864 22.2102 10.2171 22.9407 9.22251 24.2098C8.18814 25.5296 7.81397 27.2299 8.00673 29.4431C8.37872 33.7143 11.6 36.1443 15.4077 37.4733C19.2195 38.8037 23.9635 39.1766 28.1738 39.1766C32.6893 39.1766 37.3088 37.1607 40.6421 34.2421C43.9493 31.3462 46.2465 27.3146 45.5357 23.1968L45.5335 23.1842ZM44.3039 23.4094C45.5162 30.4323 36.5075 37.9266 28.1738 37.9266C19.84 37.9267 9.87037 36.4345 9.25201 29.3346C8.82592 24.4423 11.5191 23.5003 15.7407 22.0237C18.4878 21.0629 21.8821 19.8756 25.4853 17.2262C34.6258 10.5053 42.7755 15.5247 44.3039 23.4094Z" fill="#976923"/>
<path fill-rule="evenodd" clip-rule="evenodd" d="M36.3735 14.386C39.2443 15.812 41.291 18.6963 41.9653 22.1745C43.1034 28.7677 34.6459 35.8035 26.8221 35.8035C19.3972 35.8035 10.589 34.5419 9.21398 28.7162C9.22082 28.9151 9.23348 29.1211 9.25208 29.3347C9.87043 36.4345 19.8401 37.9267 28.1738 37.9267C36.5076 37.9267 45.5163 30.4324 44.304 23.4095C43.4394 18.9494 40.4562 15.4061 36.3735 14.386Z" fill="#CA8E34"/>
<path d="M27.1701 22.3982C26.7277 22.7944 26.0478 22.7569 25.6517 22.3144C25.2555 21.8719 25.293 21.1921 25.7355 20.7959C26.1779 20.3998 26.8578 20.4373 27.2539 20.8798C27.6501 21.3222 27.6126 22.0021 27.1701 22.3982Z" fill="#996518"/>
<path d="M16.5451 32.3982C16.1027 32.7944 15.4228 32.7569 15.0267 32.3144C14.6305 31.8719 14.668 31.1921 15.1105 30.7959C15.5529 30.3998 16.2328 30.4373 16.6289 30.8798C17.0251 31.3222 16.9876 32.0021 16.5451 32.3982Z" fill="#996518"/>
<path d="M22.1701 28.6482C21.7277 29.0444 21.0478 29.0069 20.6517 28.5644C20.2555 28.1219 20.293 27.4421 20.7355 27.0459C21.1779 26.6498 21.8578 26.6873 22.2539 27.1298C22.6501 27.5722 22.6126 28.2521 22.1701 28.6482Z" fill="#996518"/>
<path d="M27.1701 32.3982C26.7277 32.7944 26.0478 32.7569 25.6517 32.3144C25.2555 31.8719 25.293 31.1921 25.7355 30.7959C26.1779 30.3998 26.8578 30.4373 27.2539 30.8798C27.6501 31.3222 27.6126 32.0021 27.1701 32.3982Z" fill="#996518"/>
<path d="M35.2951 24.2732C34.8527 24.6694 34.1728 24.6319 33.7767 24.1894C33.3805 23.7469 33.418 23.0671 33.8605 22.6709C34.3029 22.2748 34.9828 22.3123 35.3789 22.7548C35.7751 23.1972 35.7376 23.8771 35.2951 24.2732Z" fill="#996518"/>
<path d="M35.2951 18.0232C34.8527 18.4194 34.1728 18.3819 33.7767 17.9394C33.3805 17.4969 33.418 16.8171 33.8605 16.4209C34.3029 16.0248 34.9828 16.0623 35.3789 16.5048C35.7751 16.9472 35.7376 17.6271 35.2951 18.0232Z" fill="#996518"/>
<path d="M42.7951 24.8982C42.3527 25.2944 41.6728 25.2569 41.2767 24.8144C40.8805 24.3719 40.918 23.6921 41.3605 23.2959C41.8029 22.8998 42.4828 22.9373 42.8789 23.3798C43.2751 23.8222 43.2376 24.5021 42.7951 24.8982Z" fill="#996518"/>
<path d="M30.9201 27.3982C30.4777 27.7944 29.7978 27.7569 29.4017 27.3144C29.0055 26.8719 29.043 26.1921 29.4855 25.7959C29.9279 25.3998 30.6078 25.4373 31.0039 25.8798C31.4001 26.3222 31.3626 27.0021 30.9201 27.3982Z" fill="#996518"/>
<path d="M39.2358 29.6946C38.7934 30.0908 38.1136 30.0532 37.7174 29.6108C37.3212 29.1683 37.3588 28.4885 37.8012 28.0923C38.2437 27.6962 38.9235 27.7337 39.3197 28.1761C39.7158 28.6186 39.6783 29.2984 39.2358 29.6946Z" fill="#996518"/>
<path d="M32.3608 34.6946C31.9184 35.0908 31.2386 35.0532 30.8424 34.6108C30.4462 34.1683 30.4838 33.4885 30.9262 33.0923C31.3687 32.6962 32.0485 32.7337 32.4447 33.1761C32.8408 33.6186 32.8033 34.2984 32.3608 34.6946Z" fill="#996518"/>
<path d="M38.6108 34.6946C38.1684 35.0908 37.4886 35.0532 37.0924 34.6108C36.6962 34.1683 36.7338 33.4885 37.1762 33.0923C37.6187 32.6962 38.2985 32.7337 38.6947 33.1761C39.0908 33.6186 39.0533 34.2984 38.6108 34.6946Z" fill="#996518"/>
<path d="M27.9858 38.4446C27.5434 38.8408 26.8636 38.8032 26.4674 38.3608C26.0712 37.9183 26.1088 37.2385 26.5512 36.8423C26.9937 36.4462 27.6735 36.4837 28.0697 36.9261C28.4658 37.3686 28.4283 38.0484 27.9858 38.4446Z" fill="#996518"/>
<path d="M20.9201 38.0232C20.4777 38.4194 19.7978 38.3819 19.4017 37.9394C19.0055 37.4969 19.043 36.8171 19.4855 36.4209C19.9279 36.0248 20.6078 36.0623 21.0039 36.5048C21.4001 36.9472 21.3626 37.6271 20.9201 38.0232Z" fill="#996518"/>
<path d="M10.9201 26.7732C10.4777 27.1694 9.79782 27.1319 9.40166 26.6894C9.00549 26.2469 9.04302 25.5671 9.48548 25.1709C9.92794 24.7748 10.6078 24.8123 11.0039 25.2548C11.4001 25.6972 11.3626 26.3771 10.9201 26.7732Z" fill="#996518"/>
<path d="M20.9201 21.7732C20.4777 22.1694 19.7978 22.1319 19.4017 21.6894C19.0055 21.2469 19.043 20.5671 19.4855 20.1709C19.9279 19.7748 20.6078 19.8123 21.0039 20.2548C21.4001 20.6972 21.3626 21.3771 20.9201 21.7732Z" fill="#996518"/>
<path d="M42.795 19.2732C42.3525 19.6694 41.6727 19.6319 41.2765 19.1894C40.8803 18.7469 40.9179 18.0671 41.3603 17.6709C41.8028 17.2748 42.4826 17.3123 42.8788 17.7548C43.2749 18.1972 43.2374 18.8771 42.795 19.2732Z" fill="#996518"/>
<path d="M20.121 24.277C20.9223 25.8683 19.637 28.1327 17.2501 29.3348C14.8631 30.5369 12.2785 30.2214 11.4771 28.6301C10.6757 27.0388 11.9611 24.7743 14.348 23.5722C16.7349 22.3702 19.3196 22.6857 20.121 24.277Z" fill="#EEB257"/>
<path fill-rule="evenodd" clip-rule="evenodd" d="M15.7677 25.2077C16.0905 25.8179 15.8573 26.5743 15.247 26.897C14.8677 27.0976 14.5702 27.3506 14.337 27.6561C13.9181 28.2048 13.1337 28.3101 12.5849 27.8912C12.0362 27.4724 11.9309 26.6879 12.3498 26.1392C12.8129 25.5325 13.3949 25.0484 14.0784 24.687C14.6887 24.3642 15.445 24.5974 15.7677 25.2077Z" fill="white"/>
</svg>
