<svg width="90" height="90" viewBox="0 0 90 90" fill="none" xmlns="http://www.w3.org/2000/svg">
<circle cx="45" cy="45" r="45" fill="#344C31"/>
<path d="M50.3903 49.7033L52.1612 48.5887C52.2193 48.5525 52.2697 48.5051 52.3096 48.4494C52.3494 48.3937 52.3779 48.3306 52.3934 48.2639C52.4088 48.1971 52.411 48.128 52.3998 48.0604C52.3885 47.9928 52.3641 47.9281 52.3278 47.87C52.2916 47.8119 52.2442 47.7614 52.1885 47.7216C52.1327 47.6818 52.0697 47.6533 52.003 47.6378C51.9362 47.6223 51.8671 47.6201 51.7995 47.6314C51.7319 47.6426 51.6672 47.6671 51.6091 47.7033L50.208 48.6252L50.5049 47.7137C50.547 47.5818 50.535 47.4386 50.4716 47.3155C50.4401 47.2546 50.397 47.2004 50.3446 47.1561C50.2923 47.1119 50.2317 47.0784 50.1664 47.0575C50.0344 47.0154 49.8912 47.0274 49.7681 47.0909C49.6451 47.1543 49.5522 47.2641 49.5101 47.396L49.2184 48.3023L48.5935 46.7398C48.5423 46.6113 48.4423 46.5084 48.3153 46.4537C48.1883 46.399 48.0448 46.397 47.9164 46.4481C47.7879 46.4992 47.685 46.5993 47.6303 46.7263C47.5756 46.8532 47.5736 46.9967 47.6247 47.1252L48.4007 49.0679C46.1991 48.6352 43.9152 49.0231 41.9799 50.1585C40.0446 51.2939 38.5917 53.0982 37.8952 55.2312C37.1988 57.3641 37.3069 59.6782 38.1993 61.7369C39.0916 63.7956 40.7065 65.4565 42.7393 66.4065L40.9684 67.5262C40.8503 67.6002 40.7664 67.7179 40.7352 67.8537C40.7039 67.9895 40.7279 68.1321 40.8018 68.2502C40.8757 68.3683 40.9935 68.4522 41.1292 68.4835C41.265 68.5147 41.4076 68.4908 41.5257 68.4169L42.9476 67.521L42.6507 68.4169C42.608 68.5481 42.6191 68.6909 42.6816 68.814C42.7441 68.937 42.8529 69.0302 42.9841 69.0731C43.0377 69.0802 43.0919 69.0802 43.1455 69.0731C43.2604 69.0784 43.3738 69.0455 43.468 68.9795C43.5622 68.9136 43.632 68.8183 43.6664 68.7085L43.958 67.8335L44.583 69.396C44.6216 69.493 44.6884 69.576 44.7748 69.6345C44.8612 69.693 44.9631 69.7243 45.0674 69.7242C45.1334 69.7243 45.1988 69.712 45.2601 69.6877C45.3238 69.6625 45.3818 69.6249 45.4309 69.5772C45.48 69.5295 45.5193 69.4725 45.5464 69.4096C45.5734 69.3468 45.5879 69.2791 45.5888 69.2107C45.5897 69.1422 45.5772 69.0742 45.5518 69.0106L44.7705 67.0627C45.3666 67.1883 45.9739 67.2529 46.583 67.2554C48.6794 67.2537 50.7122 66.5354 52.3443 65.2198C53.9765 63.9043 55.1099 62.0703 55.5568 60.0222C56.0036 57.974 55.737 55.8346 54.8011 53.9588C53.8652 52.0829 52.3163 50.5833 50.4112 49.7085L50.3903 49.7033ZM44.0622 65.8127C43.6143 65.5002 43.6039 62.4169 45.1664 57.6044C46.7289 52.7919 48.5466 50.3127 49.0778 50.3127C49.5205 50.6252 49.531 53.7085 47.9685 58.521C46.406 63.3335 44.5882 65.8127 44.0622 65.8127ZM47.6039 50.1877C47.252 50.6043 46.9366 51.0504 46.6612 51.521C45.625 53.3357 44.7869 55.2564 44.1612 57.2502C43.4268 59.5106 42.5987 62.9273 42.7757 65.0106C42.11 64.3162 41.6455 63.4538 41.432 62.5158C40.9744 60.5102 41.0918 58.4161 41.7705 56.4742C42.3622 54.5036 43.4977 52.7399 45.0466 51.3856C45.7745 50.7616 46.6585 50.3475 47.6039 50.1877ZM45.5205 65.9221C45.8701 65.5049 46.1837 65.0588 46.458 64.5887C47.4936 62.7647 48.3317 60.8354 48.958 58.8335C49.6872 56.5783 50.5205 53.1565 50.3382 51.0731C51.0074 51.7659 51.4739 52.6287 51.6872 53.5679C52.1448 55.5736 52.0274 57.6676 51.3487 59.6096C50.208 63.1148 47.8122 65.6096 45.5205 65.9221ZM38.8174 55.5367C39.2784 54.1192 40.1195 52.8553 41.249 51.8828C42.3786 50.9102 43.7534 50.2663 45.2237 50.021C44.9339 50.1972 44.6572 50.3939 44.3955 50.6096C42.6943 52.0905 41.4436 54.0198 40.7862 56.1773C40.0495 58.3088 39.9268 60.6044 40.432 62.8023C40.5176 63.1287 40.6255 63.4489 40.7549 63.7606C39.7113 62.6977 38.979 61.3692 38.6374 59.9193C38.2958 58.4694 38.3581 56.9536 38.8174 55.5367ZM54.3174 60.5731C53.8554 61.9947 53.0107 63.2615 51.876 64.2345C50.7413 65.2074 49.3605 65.849 47.8851 66.0887C49.7601 64.9273 51.4372 62.7242 52.3435 59.9325C53.0836 57.8036 53.2082 55.5092 52.7028 53.3127C52.6149 52.9887 52.507 52.6704 52.3799 52.3596C53.4216 53.4215 54.1528 54.7483 54.4943 56.1961C54.8359 57.6439 54.7747 59.1576 54.3174 60.5731ZM67.307 41.8908C67.2868 41.8551 67.2604 41.8233 67.2289 41.7971C67.1455 41.6981 67.0674 41.5887 66.9789 41.495L66.2393 40.6929C66.0028 40.4354 65.7176 40.2274 65.4003 40.0808C65.0829 39.9342 64.7397 39.8519 64.3903 39.8387L64.7445 39.1356C64.9122 38.7982 64.9721 38.4174 64.9162 38.0448C64.8603 37.6721 64.6913 37.3257 64.432 37.0523C64.3372 36.9584 64.2716 36.8392 64.243 36.7089C64.2143 36.5786 64.2239 36.4429 64.2705 36.3179L64.8643 34.8335C64.9863 34.5308 65.0246 34.2009 64.9751 33.8783C64.9256 33.5557 64.7902 33.2524 64.583 33.0002L64.0622 32.3856C63.9259 32.2204 63.8308 32.0252 63.7846 31.816C63.7385 31.6069 63.7425 31.3898 63.7966 31.1825L64.0049 30.396C64.1329 29.9282 64.0842 29.4296 63.8681 28.9954C63.6519 28.5612 63.2835 28.2218 62.833 28.0419C62.5803 27.9409 62.3559 27.78 62.179 27.5732C62.0021 27.3664 61.878 27.1197 61.8174 26.8544L61.6247 25.9846C61.5719 25.7532 61.4645 25.5379 61.3113 25.3567C61.1582 25.1754 60.9638 25.0335 60.7445 24.9429C60.4645 24.8257 60.1545 24.8002 59.8591 24.87L59.9945 24.3023C60.0849 23.892 60.0434 23.4637 59.876 23.0783C59.7086 22.693 59.4238 22.3704 59.0622 22.1565L58.7497 21.9794C58.5331 21.8554 58.2926 21.779 58.0442 21.7553C57.7958 21.7316 57.5452 21.7612 57.3091 21.842C57.073 21.9228 56.8568 22.0531 56.675 22.2241C56.4933 22.3951 56.35 22.6028 56.2549 22.8335L55.9372 23.4898C55.895 23.5944 55.8233 23.6846 55.7308 23.7493C55.6384 23.814 55.5291 23.8505 55.4164 23.8544C55.2299 23.8556 55.0458 23.8958 54.8757 23.9723C54.7057 24.0488 54.5535 24.16 54.429 24.2988C54.3044 24.4376 54.2102 24.6008 54.1525 24.7781C54.0947 24.9554 54.0746 25.1428 54.0934 25.3283L54.2393 26.7971C54.2846 27.2509 54.1521 27.7047 53.8695 28.0627L53.3903 28.6669C53.0622 29.0854 52.8892 29.6047 52.9006 30.1364C52.912 30.6681 53.1071 31.1794 53.4528 31.5835L53.9737 32.1929C54.1372 32.3755 54.2581 32.5922 54.3275 32.8274C54.3968 33.0625 54.413 33.3101 54.3747 33.5523L54.2705 34.1304C54.2049 34.5197 54.2469 34.9195 54.3919 35.2867C54.5369 35.6538 54.7795 35.9744 55.0934 36.2137L55.833 36.771C55.946 36.858 56.0342 36.9729 56.089 37.1045C56.1438 37.236 56.1633 37.3796 56.1455 37.521C56.0816 38.0077 56.1856 38.5015 56.4403 38.921C56.6951 39.3406 57.0853 39.6606 57.5466 39.8283C57.7659 39.9128 57.9638 40.0449 58.1259 40.2152C58.2881 40.3854 58.4104 40.5895 58.4841 40.8127L58.6351 41.2137C58.3019 41.4036 58.0139 41.6636 57.7909 41.9756C57.5679 42.2876 57.4152 42.6443 57.3434 43.021L57.0778 44.4221C56.8619 45.5656 56.8842 46.7413 57.1432 47.8758C57.4021 49.0104 57.8923 50.0793 58.583 51.0158L66.5518 61.8023C66.5998 61.8679 66.6624 61.9214 66.7348 61.9585C66.8071 61.9956 66.8872 62.0152 66.9685 62.0158C67.0117 62.0209 67.0554 62.0209 67.0987 62.0158C67.2 61.9893 67.2909 61.9329 67.3597 61.8539C67.4284 61.775 67.4718 61.6771 67.4841 61.5731L69.1507 48.2815C69.2931 47.1469 69.203 45.9952 68.886 44.8965C68.5691 43.7979 68.0318 42.7752 67.307 41.8908ZM57.8955 38.8804C57.6584 38.7914 57.4578 38.6257 57.3256 38.4096C57.1935 38.1935 57.1374 37.9394 57.1664 37.6877C57.209 37.3643 57.166 37.0354 57.0417 36.7338C56.9174 36.4322 56.7161 36.1684 56.458 35.969L55.7185 35.4117C55.5535 35.2851 55.4264 35.1158 55.3511 34.922C55.2758 34.7282 55.2551 34.5174 55.2914 34.3127L55.3955 33.7346C55.465 33.3419 55.4463 32.9387 55.341 32.5541C55.2356 32.1695 55.0461 31.8131 54.7862 31.5106L54.2653 30.9012C54.0826 30.6837 53.9794 30.4104 53.9728 30.1264C53.9662 29.8424 54.0565 29.5646 54.2289 29.3387L54.708 28.7346C55.16 28.1654 55.3713 27.4419 55.2966 26.719L55.1507 25.2502C55.1433 25.2093 55.1445 25.1673 55.154 25.1269C55.1636 25.0865 55.1814 25.0484 55.2063 25.0152C55.2313 24.982 55.2628 24.9542 55.2989 24.9337C55.3351 24.9132 55.375 24.9004 55.4164 24.896C55.7348 24.8912 56.0449 24.7935 56.3086 24.6149C56.5722 24.4364 56.7781 24.1847 56.9007 23.8908L57.1716 23.2346C57.2109 23.1402 57.2697 23.0552 57.3442 22.9851C57.4187 22.9151 57.5072 22.8617 57.6039 22.8283C57.7003 22.7949 57.8028 22.7827 57.9044 22.7926C58.006 22.8025 58.1042 22.8342 58.1924 22.8856L58.5049 23.0627C58.6834 23.1635 58.8242 23.3197 58.906 23.5076C58.9878 23.6956 59.006 23.9051 58.958 24.1044L58.7184 25.12V25.1669L58.2705 28.469C58.2512 28.6057 58.287 28.7445 58.37 28.8549C58.453 28.9653 58.5765 29.0381 58.7132 29.0575H58.7862C58.9133 29.0586 59.0365 29.0131 59.1324 28.9296C59.2284 28.8462 59.2905 28.7305 59.307 28.6044L59.6507 26.0783C59.7555 26.0633 59.8564 26.0279 59.9476 25.9742C60.0052 25.9304 60.0729 25.902 60.1445 25.8915C60.216 25.8811 60.2891 25.889 60.3567 25.9145C60.4244 25.94 60.4845 25.9823 60.5314 26.0373C60.5782 26.0924 60.6103 26.1585 60.6247 26.2294L60.8226 27.0992C60.9198 27.5299 61.1205 27.9304 61.4073 28.2662C61.694 28.602 62.0583 28.8628 62.4685 29.0262C62.6808 29.1124 62.8542 29.2734 62.956 29.4788C63.0577 29.6842 63.0807 29.9197 63.0205 30.1408L62.8174 30.8804C62.7177 31.2507 62.7087 31.6395 62.7913 32.0139C62.8738 32.3884 63.0453 32.7374 63.2914 33.0315L63.8122 33.6408C63.9049 33.75 63.966 33.8824 63.9889 34.0238C64.0119 34.1651 63.9958 34.31 63.9424 34.4429L63.3487 35.9273C63.2269 36.2357 63.1955 36.5725 63.2582 36.8981C63.321 37.2237 63.4752 37.5247 63.7028 37.7658C63.8157 37.8826 63.8894 38.0316 63.9137 38.1921C63.9379 38.3527 63.9116 38.5168 63.8382 38.6617L63.156 40.0315L62.333 40.2294L62.8539 38.344C62.8912 38.2107 62.874 38.068 62.8061 37.9474C62.7382 37.8267 62.6252 37.738 62.4919 37.7007C62.3586 37.6634 62.2159 37.6806 62.0953 37.7485C61.9747 37.8164 61.886 37.9294 61.8487 38.0627L61.4424 39.495L61.4112 39.4325C60.5183 37.6291 59.9757 35.6726 59.8122 33.6669C59.8005 33.5287 59.7343 33.4009 59.6283 33.3116C59.5224 33.2222 59.3852 33.1786 59.2471 33.1903C59.109 33.2021 58.9812 33.2682 58.8918 33.3742C58.8024 33.4801 58.7588 33.6173 58.7705 33.7554C58.8174 34.2762 58.8851 34.7971 58.9789 35.3179L58.1403 34.7971C58.0243 34.7218 57.8831 34.6957 57.7478 34.7245C57.6125 34.7533 57.4943 34.8347 57.419 34.9507C57.3437 35.0668 57.3176 35.2079 57.3464 35.3432C57.3752 35.4785 57.4566 35.5968 57.5726 35.6721L59.3018 36.7919C59.5913 37.8687 59.9837 38.9152 60.4737 39.9169L60.8122 40.5992L59.6247 40.8804L59.4684 40.4585C59.3371 40.0968 59.1283 39.7681 58.8566 39.4955C58.5849 39.2228 58.2569 39.0129 57.8955 38.8804ZM66.6143 60.1356L59.4216 50.3908C58.8158 49.5698 58.3861 48.6325 58.1594 47.6377C57.9326 46.6429 57.9137 45.612 58.1039 44.6096L58.3695 43.2085C58.4274 42.9033 58.573 42.6215 58.7886 42.3976C59.0041 42.1738 59.2802 42.0176 59.583 41.9481L63.156 41.1044L63.9372 40.9221C64.0565 40.8928 64.179 40.8788 64.3018 40.8804C64.5241 40.8808 64.744 40.9273 64.9475 41.017C65.151 41.1066 65.3337 41.2375 65.4841 41.4012L65.9216 41.8804L62.9528 42.6565C62.8147 42.6737 62.6891 42.7452 62.6036 42.855C62.5181 42.9649 62.4798 43.1043 62.4971 43.2424C62.5144 43.3805 62.5858 43.5061 62.6957 43.5916C62.8056 43.6771 62.9449 43.7154 63.083 43.6981C63.1263 43.7032 63.17 43.7032 63.2132 43.6981L66.682 42.7919C66.9545 43.1511 67.1933 43.5347 67.3955 43.9377L65.833 44.3544C65.7646 44.3629 65.6986 44.3849 65.6387 44.4189C65.5788 44.453 65.5261 44.4985 65.4838 44.553C65.4415 44.6074 65.4103 44.6696 65.392 44.736C65.3738 44.8025 65.3688 44.8719 65.3773 44.9403C65.3859 45.0087 65.4078 45.0747 65.4419 45.1347C65.4759 45.1946 65.5215 45.2472 65.5759 45.2895C65.6303 45.3318 65.6925 45.363 65.759 45.3813C65.8254 45.3996 65.8948 45.4046 65.9632 45.396C66.0065 45.4011 66.0502 45.4011 66.0935 45.396L67.8174 44.9429C67.9508 45.3574 68.0484 45.7826 68.1091 46.2137L65.833 46.7502C65.7666 46.7672 65.7042 46.7971 65.6494 46.8383C65.5946 46.8795 65.5485 46.931 65.5136 46.9901C65.4788 47.0491 65.4559 47.1144 65.4464 47.1823C65.4369 47.2502 65.4408 47.3193 65.458 47.3856C65.4876 47.5002 65.5552 47.6013 65.6499 47.6723C65.7446 47.7433 65.8606 47.78 65.9789 47.7762C66.0221 47.7813 66.0658 47.7813 66.1091 47.7762L68.1924 47.2242C68.1958 47.534 68.1784 47.8437 68.1403 48.1512L68.083 48.5992L65.4789 49.2815C65.4125 49.2984 65.3501 49.3284 65.2953 49.3695C65.2404 49.4107 65.1943 49.4623 65.1595 49.5213C65.1246 49.5803 65.1018 49.6457 65.0922 49.7136C65.0827 49.7814 65.0866 49.8505 65.1039 49.9169C65.1334 50.0315 65.2011 50.1326 65.2957 50.2036C65.3904 50.2746 65.5064 50.3112 65.6247 50.3075C65.668 50.3126 65.7117 50.3126 65.7549 50.3075L67.9164 49.6981L66.6143 60.1356ZM58.3435 31.5783C58.3435 31.4753 58.374 31.3746 58.4312 31.289C58.4885 31.2033 58.5698 31.1366 58.665 31.0971C58.7601 31.0577 58.8649 31.0474 58.9659 31.0675C59.0669 31.0876 59.1597 31.1372 59.2326 31.21C59.3054 31.2829 59.355 31.3757 59.3751 31.4767C59.3952 31.5778 59.3849 31.6825 59.3455 31.7776C59.306 31.8728 59.2393 31.9542 59.1536 32.0114C59.068 32.0686 58.9673 32.0992 58.8643 32.0992C58.7262 32.0992 58.5937 32.0443 58.496 31.9466C58.3983 31.8489 58.3435 31.7165 58.3435 31.5783ZM41.7757 43.1929L41.8174 43.0783C43.1514 39.2472 43.2804 35.0995 42.1872 31.1929C42.0167 30.5703 41.6741 30.0085 41.1987 29.5718C40.7234 29.1351 40.1345 28.8413 39.4997 28.7242C38.7307 28.5837 37.9367 28.7047 37.2445 29.0679L36.7237 29.3596C36.6288 29.4112 36.5245 29.443 36.417 29.4531C36.3094 29.4632 36.201 29.4513 36.0982 29.4181C35.9955 29.385 35.9005 29.3314 35.8191 29.2604C35.7377 29.1895 35.6715 29.1027 35.6247 29.0054C35.3584 28.4489 34.9682 27.9607 34.4841 27.5783L34.6247 25.8335C34.646 25.5407 34.7346 25.2567 34.8836 25.0038C35.0327 24.7508 35.2382 24.5357 35.4841 24.3752L35.6664 24.2554C35.8511 24.131 36.0087 23.9704 36.1296 23.7833C36.2504 23.5961 36.3321 23.3865 36.3695 23.1669C36.4183 22.8514 36.3728 22.5285 36.2387 22.2388C36.1046 21.949 35.8879 21.7054 35.6158 21.5384C35.3437 21.3715 35.0283 21.2887 34.7092 21.3004C34.3902 21.3121 34.0817 21.4179 33.8226 21.6044L33.6664 21.7137C32.9981 22.192 32.4467 22.8153 32.0535 23.5368C31.6602 24.2584 31.4353 25.0596 31.3955 25.8804L31.3539 26.7085C30.4703 26.824 29.6471 27.2196 29.005 27.8374C28.3629 28.4551 27.9357 29.2624 27.7862 30.1408V30.1669C27.7786 30.2176 27.7584 30.2656 27.7274 30.3066C27.6965 30.3475 27.6558 30.3801 27.6091 30.4012C27.5641 30.425 27.5141 30.4374 27.4632 30.4374C27.4124 30.4374 27.3624 30.425 27.3174 30.4012L26.6039 29.9585C26.1344 29.6729 25.6054 29.4994 25.058 29.4515C24.5106 29.4037 23.9595 29.4827 23.4476 29.6825C23.1652 29.792 22.8989 29.9392 22.6559 30.12C22.5796 30.1479 22.5108 30.1933 22.4551 30.2526C22.3994 30.3118 22.3584 30.3833 22.3353 30.4613C22.3122 30.5392 22.3077 30.6215 22.3221 30.7016C22.3365 30.7816 22.3695 30.8571 22.4183 30.9221C22.4672 30.9872 22.5306 31.0398 22.6034 31.0759C22.6763 31.112 22.7566 31.1305 22.8379 31.13C22.9193 31.1295 22.9993 31.11 23.0717 31.073C23.1441 31.0359 23.2069 30.9825 23.2549 30.9169C23.4282 30.7903 23.6173 30.687 23.8174 30.6096C24.1772 30.468 24.565 30.4122 24.9502 30.4465C25.3353 30.4809 25.7071 30.6045 26.0362 30.8075L26.7549 31.245C26.9961 31.3901 27.2762 31.4574 27.557 31.4377C27.372 32.7105 27.2832 33.9953 27.2914 35.2815C27.2914 35.4196 27.3462 35.5521 27.4439 35.6497C27.5416 35.7474 27.6741 35.8023 27.8122 35.8023C27.9503 35.8023 28.0828 35.7474 28.1805 35.6497C28.2782 35.5521 28.333 35.4196 28.333 35.2815C28.3107 33.6248 28.459 31.9702 28.7757 30.344C28.8774 29.6853 29.1869 29.0764 29.6591 28.6062C30.1313 28.136 30.7415 27.829 31.4005 27.7301C32.0595 27.6312 32.7329 27.7456 33.3223 28.0566C33.9118 28.3675 34.3863 28.8587 34.6768 29.4585C34.7289 29.5581 34.7881 29.6539 34.8539 29.745C34.8512 29.757 34.8512 29.7695 34.8539 29.7815L35.4684 32.8544C35.4917 32.9747 35.5567 33.0831 35.652 33.1602C35.7473 33.2374 35.8667 33.2785 35.9893 33.2762H36.0934C36.161 33.2632 36.2252 33.2369 36.2825 33.1988C36.3398 33.1608 36.389 33.1118 36.4272 33.0547C36.4655 32.9975 36.492 32.9334 36.5054 32.8659C36.5187 32.7985 36.5185 32.7291 36.5049 32.6617L36.0674 30.4794C36.4522 30.5334 36.8442 30.4641 37.1872 30.2815L37.708 29.9898C38.1874 29.7374 38.7376 29.6531 39.2705 29.7502C39.7134 29.8306 40.1244 30.0347 40.4562 30.3388C40.788 30.643 41.027 31.0348 41.1455 31.469C42.1947 35.1679 42.0857 39.0995 40.833 42.7346L40.7914 42.8492C40.5717 43.477 40.1797 44.0304 39.6602 44.4458C39.1407 44.8612 38.5147 45.122 37.8539 45.1981C37.6606 45.2187 37.4702 45.2606 37.2862 45.3231L37.3382 44.719C37.5079 42.7229 37.4573 40.7143 37.1872 38.7294C37.1783 38.661 37.156 38.595 37.1216 38.5352C37.0873 38.4754 37.0414 38.423 36.9868 38.3809C36.9321 38.3388 36.8697 38.3079 36.8031 38.29C36.7365 38.272 36.6671 38.2674 36.5987 38.2762C36.5303 38.2851 36.4643 38.3074 36.4045 38.3418C36.3447 38.3762 36.2923 38.422 36.2502 38.4767C36.1652 38.587 36.1276 38.7267 36.1455 38.8648C36.4006 40.7813 36.4425 42.7203 36.2705 44.646L36.1768 46.021C36.0778 46.1225 35.9856 46.2304 35.9007 46.344C35.773 46.5305 35.6097 46.69 35.4203 46.8133C35.2308 46.9367 35.0188 47.0214 34.7966 47.0627L34.0309 47.2033C33.3576 47.3263 32.6631 47.2522 32.0309 46.9898L31.708 46.521C30.9317 45.3789 30.2804 44.1566 29.7653 42.8752C29.7153 42.747 29.6165 42.6438 29.4906 42.5882C29.3647 42.5325 29.2219 42.529 29.0934 42.5783C29.0293 42.6031 28.9708 42.6403 28.9211 42.6878C28.8714 42.7353 28.8316 42.7921 28.804 42.8551C28.7764 42.918 28.7616 42.9858 28.7603 43.0545C28.759 43.1232 28.7713 43.1915 28.7966 43.2554C29.273 44.4488 29.8644 45.5931 30.5622 46.6721C30.4123 46.6721 30.2627 46.6826 30.1143 46.7033L29.4059 46.8023C28.851 46.8813 28.285 46.8122 27.7654 46.6018C27.2459 46.3914 26.7912 46.0473 26.4476 45.6044C24.2642 42.7669 22.7346 39.482 21.9684 35.9846C21.8696 35.5207 21.8225 35.0474 21.8278 34.5731C21.8278 34.435 21.7729 34.3025 21.6753 34.2048C21.5776 34.1072 21.4451 34.0523 21.307 34.0523C21.1689 34.0523 21.0364 34.1072 20.9387 34.2048C20.841 34.3025 20.7862 34.435 20.7862 34.5731C20.7768 35.1281 20.8328 35.6822 20.9528 36.2242C21.7564 39.8727 23.3571 43.2983 25.6403 46.2554C26.0961 46.8439 26.6995 47.3013 27.3892 47.5812C28.0789 47.8611 28.8304 47.9536 29.5674 47.8492L30.2809 47.7502C30.6936 47.6892 31.115 47.7489 31.4945 47.9221C32.3504 48.3164 33.3079 48.4347 34.2341 48.2606L34.9997 48.12C35.7094 47.9922 36.3411 47.5922 36.7601 47.0054C36.9024 46.807 37.085 46.6409 37.2959 46.518C37.5068 46.395 37.7413 46.318 37.9841 46.2919C38.8442 46.1861 39.6568 45.8389 40.3279 45.2905C40.9989 44.7421 41.5009 44.0148 41.7757 43.1929ZM34.2653 22.5419L34.4216 22.4325C34.5437 22.3455 34.6946 22.3089 34.8429 22.3303C34.9913 22.3516 35.1258 22.4293 35.2184 22.5471C35.2675 22.6108 35.3029 22.6838 35.3226 22.7618C35.3424 22.8397 35.3459 22.9209 35.333 23.0002C35.3181 23.0781 35.2879 23.1524 35.2441 23.2185C35.2003 23.2847 35.1438 23.3415 35.0778 23.3856L34.9007 23.5054C34.5232 23.7535 34.2077 24.0848 33.9783 24.474C33.749 24.8632 33.612 25.2998 33.5778 25.7502L33.4737 26.9846C33.1259 26.8388 32.7595 26.7424 32.3851 26.6981L32.4268 25.9221C32.4595 25.2567 32.6418 24.6073 32.9601 24.0221C33.2784 23.4368 33.7245 22.9309 34.2653 22.5419ZM28.4007 37.9481C28.4007 38.0511 28.3702 38.1518 28.313 38.2375C28.2557 38.3231 28.1744 38.3899 28.0792 38.4293C27.9841 38.4687 27.8793 38.479 27.7783 38.4589C27.6773 38.4389 27.5845 38.3892 27.5116 38.3164C27.4388 38.2436 27.3892 38.1508 27.3691 38.0497C27.349 37.9487 27.3593 37.844 27.3987 37.7488C27.4381 37.6536 27.5049 37.5723 27.5905 37.5151C27.6762 37.4578 27.7769 37.4273 27.8799 37.4273C28.018 37.4273 28.1505 37.4822 28.2482 37.5798C28.3459 37.6775 28.4007 37.81 28.4007 37.9481ZM28.4424 40.4429C28.5454 40.4429 28.6461 40.4735 28.7318 40.5307C28.8174 40.5879 28.8842 40.6693 28.9236 40.7644C28.963 40.8596 28.9733 40.9643 28.9532 41.0654C28.9331 41.1664 28.8835 41.2592 28.8107 41.332C28.7379 41.4049 28.645 41.4545 28.544 41.4746C28.443 41.4947 28.3383 41.4844 28.2431 41.4449C28.1479 41.4055 28.0666 41.3388 28.0093 41.2531C27.9521 41.1675 27.9216 41.0668 27.9216 40.9637C27.9216 40.8953 27.935 40.8276 27.9612 40.7644C27.9874 40.7012 28.0258 40.6438 28.0741 40.5955C28.1225 40.5471 28.1799 40.5087 28.2431 40.4826C28.3063 40.4564 28.374 40.4429 28.4424 40.4429ZM35.833 36.1252C35.833 36.0222 35.8636 35.9215 35.9208 35.8358C35.978 35.7502 36.0594 35.6834 36.1546 35.644C36.2497 35.6046 36.3544 35.5943 36.4555 35.6144C36.5565 35.6345 36.6493 35.6841 36.7221 35.7569C36.795 35.8298 36.8446 35.9226 36.8647 36.0236C36.8848 36.1246 36.8745 36.2293 36.8351 36.3245C36.7956 36.4197 36.7289 36.501 36.6432 36.5583C36.5576 36.6155 36.4569 36.646 36.3539 36.646C36.2157 36.646 36.0833 36.5912 35.9856 36.4935C35.8879 36.3958 35.833 36.2633 35.833 36.1252ZM31.3695 54.3544C31.3393 54.3367 31.308 54.321 31.2757 54.3075C31.5212 54.0336 31.6599 53.6805 31.6664 53.3127C31.6665 52.9054 31.5076 52.5142 31.2235 52.2223C30.9395 51.9305 30.5527 51.7611 30.1455 51.7502H29.5882C28.9866 51.7364 28.3941 51.8992 27.8841 52.2186C27.374 52.538 26.9688 52.9998 26.7184 53.5471C26.1412 53.1894 25.4615 53.0336 24.7862 53.1044C24.084 53.1915 23.4303 53.5082 22.9268 54.0054L22.8226 54.1096C22.6257 54.3115 22.4872 54.563 22.4216 54.8373C22.3561 55.1117 22.3661 55.3986 22.4504 55.6678C22.5348 55.9369 22.6904 56.1782 22.9009 56.366C23.1113 56.5538 23.3686 56.6812 23.6455 56.7346L23.5518 56.9012C23.2013 57.5824 22.99 58.3265 22.9301 59.0901C22.8702 59.8538 22.9629 60.6217 23.2028 61.3492C23.4975 62.2631 24.0135 63.09 24.7048 63.7564C25.3961 64.4228 26.2413 64.9081 27.1654 65.1692C28.0895 65.4302 29.0637 65.4588 30.0015 65.2526C30.9393 65.0463 31.8117 64.6116 32.541 63.9869C33.2702 63.3623 33.8339 62.5671 34.1818 61.6722C34.5297 60.7772 34.6511 59.8101 34.5352 58.8569C34.4193 57.9037 34.0696 56.9939 33.5173 56.2084C32.965 55.4229 32.2272 54.786 31.3695 54.3544ZM29.5622 52.7554H30.1195C30.2558 52.7601 30.3848 52.8181 30.4789 52.9169C30.5745 53.016 30.6269 53.149 30.6247 53.2867C30.6224 53.3554 30.6065 53.4231 30.5778 53.4856C30.5492 53.5482 30.5085 53.6045 30.458 53.6512C30.3589 53.7468 30.2259 53.7993 30.0882 53.7971H29.7132C29.06 53.6851 28.3925 53.6851 27.7393 53.7971C27.9203 53.4746 28.1855 53.2074 28.5066 53.024C28.8276 52.8405 29.1925 52.7477 29.5622 52.7554ZM27.2445 54.995C27.6456 54.8636 28.0625 54.7865 28.4841 54.7658L28.2497 55.5054C28.1972 55.6701 28.108 55.8208 27.9889 55.9462C27.8699 56.0716 27.724 56.1684 27.5622 56.2294C27.3397 56.3163 27.0955 56.3309 26.8643 56.271C26.6302 56.2132 26.4171 56.0904 26.2497 55.9169L25.9789 55.6304C26.3651 55.3541 26.7921 55.1397 27.2445 54.995ZM23.5414 54.8231L23.6455 54.7242C23.9818 54.3874 24.4189 54.1697 24.8903 54.1044C25.3029 54.0667 25.7172 54.1557 26.0778 54.3596C25.6442 54.5767 25.24 54.8479 24.8747 55.1669C24.7106 55.2076 24.5599 55.2902 24.4372 55.4065L24.2601 55.5731C24.1587 55.6568 24.0295 55.699 23.8982 55.6913C23.767 55.6837 23.6435 55.6267 23.5526 55.5318C23.4616 55.4369 23.4099 55.3111 23.4079 55.1796C23.4058 55.0482 23.4535 54.9209 23.5414 54.8231ZM30.2028 64.0992C29.1932 64.4331 28.1011 64.4212 27.099 64.0656C26.0968 63.7099 25.2416 63.0306 24.6684 62.1349C24.0952 61.2393 23.8365 60.1782 23.9333 59.1192C24.0301 58.0602 24.4767 57.0636 25.2028 56.2867L25.5049 56.6044C25.8067 56.9255 26.1931 57.1548 26.6195 57.2658C26.7902 57.3064 26.9649 57.3273 27.1403 57.3283C27.4093 57.3298 27.6762 57.2803 27.9268 57.1825C28.2337 57.0653 28.5102 56.8803 28.7357 56.6413C28.9611 56.4023 29.1297 56.1155 29.2289 55.8023L29.5466 54.8179C30.5948 55.0087 31.5495 55.5437 32.2593 56.3383C32.9691 57.1329 33.3935 58.1417 33.4653 59.2047C33.537 60.2678 33.252 61.3244 32.6554 62.2072C32.0588 63.09 31.1847 63.7485 30.1716 64.0783L30.2028 64.0992ZM32.2862 58.37C32.4416 58.8381 32.503 59.3323 32.4669 59.8243C32.4308 60.3162 32.2978 60.7962 32.0757 61.2366C31.8536 61.677 31.5466 62.0691 31.1725 62.3906C30.7983 62.712 30.3644 62.9563 29.8955 63.1096C29.8437 63.1174 29.7911 63.1174 29.7393 63.1096C29.6011 63.131 29.4602 63.0967 29.3474 63.0141C29.2345 62.9316 29.1591 62.8076 29.1377 62.6695C29.1163 62.5313 29.1506 62.3904 29.2332 62.2775C29.3157 62.1647 29.4397 62.0893 29.5778 62.0679C30.2598 61.845 30.8256 61.3606 31.1507 60.721C31.4759 60.0814 31.534 59.3388 31.3122 58.6565C31.2859 58.5902 31.2735 58.5191 31.2758 58.4479C31.278 58.3766 31.2949 58.3065 31.3254 58.242C31.3559 58.1775 31.3993 58.1199 31.4529 58.0729C31.5065 58.0259 31.5692 57.9903 31.6371 57.9685C31.705 57.9467 31.7767 57.9391 31.8477 57.9461C31.9187 57.9532 31.9875 57.9747 32.0498 58.0094C32.1121 58.0441 32.1666 58.0913 32.21 58.1479C32.2533 58.2046 32.2846 58.2695 32.3018 58.3387L32.2862 58.37ZM46.2445 34.094C46.1312 34.0145 45.991 33.9834 45.8548 34.0073C45.7185 34.0312 45.5974 34.1083 45.5179 34.2216C45.4385 34.3348 45.4073 34.475 45.4313 34.6113C45.4552 34.7475 45.5323 34.8687 45.6455 34.9481C45.9225 35.1427 46.1479 35.4019 46.3021 35.7032C46.4564 36.0045 46.5349 36.3388 46.5309 36.6773C46.2477 36.8349 46.0078 37.0599 45.8324 37.3325C45.6571 37.6051 45.5517 37.9167 45.5257 38.2398L45.4789 38.9533C45.4268 39.6766 45.6193 40.3964 46.0255 40.9971C46.4316 41.5979 47.0279 42.0447 47.7185 42.2658H47.7862C48.7752 42.5872 49.8087 42.7507 50.8487 42.7502C51.6975 42.749 52.5427 42.6405 53.3643 42.4273C53.5796 42.3711 53.7727 42.2507 53.9177 42.082C54.0628 41.9132 54.1529 41.7043 54.1761 41.483C54.1993 41.2617 54.1545 41.0386 54.0476 40.8435C53.9407 40.6483 53.7768 40.4904 53.5778 40.3908L51.4216 39.3179C50.4915 38.855 49.7021 38.1519 49.1351 37.2815C48.9661 37.0178 48.7356 36.799 48.4635 36.6439C48.1913 36.4887 47.8857 36.4019 47.5726 36.3908C47.5333 35.934 47.3939 35.4914 47.1644 35.0944C46.9349 34.6975 46.6208 34.3559 46.2445 34.094ZM48.2601 37.8908C48.9288 38.9178 49.8604 39.7469 50.958 40.2919L53.1091 41.3648C53.1195 41.3682 53.1286 41.3748 53.135 41.3837C53.1414 41.3926 53.1449 41.4033 53.1449 41.4143C53.1449 41.4252 53.1414 41.4359 53.135 41.4448C53.1286 41.4537 53.1195 41.4603 53.1091 41.4637C51.4689 41.8941 49.7402 41.8489 48.1247 41.3335H48.057C47.5881 41.1824 47.1832 40.8789 46.9067 40.4712C46.6302 40.0635 46.4979 39.5751 46.5309 39.0835L46.5622 38.3283C46.5743 38.1341 46.6476 37.9486 46.7715 37.7985C46.8955 37.6485 47.0638 37.5415 47.2523 37.4929C47.4408 37.4444 47.6398 37.4567 47.8208 37.5282C48.0019 37.5997 48.1556 37.7266 48.2601 37.8908ZM62.6872 63.4117C62.4867 61.5228 61.7513 59.7304 60.5674 58.245C60.4285 58.0708 60.2397 57.9432 60.0262 57.8792C59.8128 57.8152 59.5849 57.818 59.3731 57.8871C59.1612 57.9562 58.9755 58.0883 58.8409 58.2659C58.7062 58.4434 58.629 58.6578 58.6195 58.8804L58.5414 61.2815C58.4948 62.3199 58.1711 63.327 57.6039 64.1981C57.4331 64.4628 57.3284 64.7647 57.2985 65.0782C57.2686 65.3918 57.3144 65.708 57.432 66.0002C57.0216 66.2171 56.6648 66.5227 56.3873 66.8948C56.1098 67.2669 55.9187 67.6961 55.8278 68.1512C55.8018 68.2866 55.8305 68.4267 55.9077 68.5409C55.9848 68.6552 56.104 68.7342 56.2393 68.7606H56.3382C56.4601 68.7631 56.5789 68.7227 56.6741 68.6466C56.7693 68.5705 56.8347 68.4634 56.8591 68.344C56.9243 68.0191 57.0661 67.7146 57.2726 67.4555C57.4791 67.1964 57.7445 66.9904 58.0466 66.8544C58.3846 67.1131 58.798 67.2539 59.2237 67.2554C59.4544 67.2533 59.6832 67.2128 59.9007 67.1356L60.5726 66.8544C61.2538 66.6087 61.8337 66.143 62.2204 65.5308C62.6072 64.9185 62.7788 64.1948 62.708 63.4742L62.6872 63.4117ZM60.2185 65.896L59.5414 66.1408C59.3693 66.2048 59.182 66.2157 59.0038 66.1721C58.8255 66.1284 58.6644 66.0323 58.5414 65.896C58.4049 65.7444 58.3222 65.552 58.3062 65.3486C58.2902 65.1452 58.3417 64.9422 58.4528 64.771C59.1295 63.7446 59.5197 62.5561 59.583 61.3283L59.6872 58.9273C59.6869 58.9165 59.6904 58.9059 59.6971 58.8973C59.7037 58.8888 59.7131 58.8828 59.7237 58.8804C59.7292 58.8772 59.7355 58.8755 59.7419 58.8755C59.7483 58.8755 59.7546 58.8772 59.7601 58.8804C60.8235 60.2148 61.4848 61.8245 61.6664 63.521V63.5888C61.7187 64.08 61.6043 64.5745 61.3417 64.993C61.0791 65.4114 60.6835 65.7295 60.2185 65.896ZM46.3695 30.7867C46.6419 30.8562 46.9217 30.8929 47.2028 30.896C47.4338 30.9087 47.6649 30.8747 47.8824 30.7959C48.0998 30.7172 48.2992 30.5953 48.4685 30.4377C49.4789 29.4273 48.6143 27.2815 47.8278 26.5002C47.6116 26.2834 47.3546 26.1113 47.0718 25.9939C46.7889 25.8765 46.4856 25.8161 46.1794 25.8161C45.8731 25.8161 45.5699 25.8765 45.287 25.9939C45.0041 26.1113 44.7472 26.2834 44.5309 26.5002C44.0943 26.9377 43.849 27.5305 43.849 28.1486C43.849 28.7668 44.0943 29.3596 44.5309 29.7971C45.0513 30.2756 45.6835 30.6159 46.3695 30.7867ZM45.2653 27.2346C45.509 26.9944 45.8373 26.8598 46.1794 26.8598C46.5215 26.8598 46.8498 26.9944 47.0935 27.2346C47.6924 27.8335 48.1351 29.2867 47.7341 29.7033C47.5673 29.7976 47.3815 29.8531 47.1903 29.8657C46.9992 29.8783 46.8076 29.8478 46.6299 29.7762C46.1251 29.6494 45.6575 29.4049 45.2653 29.0627C45.0252 28.8191 44.8906 28.4907 44.8906 28.1486C44.8906 27.8066 45.0252 27.4782 45.2653 27.2346ZM21.1403 32.3648C21.1403 32.2618 21.1709 32.1611 21.2281 32.0754C21.2853 31.9898 21.3667 31.923 21.4618 31.8836C21.557 31.8442 21.6617 31.8339 21.7628 31.854C21.8638 31.8741 21.9566 31.9237 22.0294 31.9965C22.1023 32.0693 22.1519 32.1621 22.172 32.2632C22.1921 32.3642 22.1818 32.4689 22.1423 32.5641C22.1029 32.6593 22.0362 32.7406 21.9505 32.7978C21.8649 32.8551 21.7642 32.8856 21.6612 32.8856C21.523 32.8856 21.3905 32.8307 21.2929 32.7331C21.1952 32.6354 21.1403 32.5029 21.1403 32.3648Z" fill="#F7C35F"/>
</svg>
