<svg width="61" height="61" viewBox="0 0 61 61" fill="none" xmlns="http://www.w3.org/2000/svg">
<path d="M10.8719 23.0019C9.55948 31.8627 14.9567 37.0032 22.4767 36.8222C29.9967 36.6412 38.192 38.141 40.3092 30.0787C42.1193 23.1856 38.812 20.3327 29.7244 16.8345C20.6368 13.3363 12.1843 14.1412 10.8719 23.0019Z" fill="#CA8E34"/>
<path fill-rule="evenodd" clip-rule="evenodd" d="M12.4315 34.1372C14.8476 36.8317 18.4576 38.1693 22.5068 38.0718C23.6238 38.045 24.7169 38.0554 25.8263 38.0659C26.5872 38.0732 27.3558 38.0805 28.1451 38.0759C30.0229 38.065 31.9169 37.9837 33.6659 37.6313C35.4222 37.2775 37.0976 36.6381 38.492 35.4646C39.8998 34.2799 40.9329 32.6251 41.5182 30.3962C42.4889 26.6994 42.1418 23.7909 40.0497 21.3668C38.0853 19.0906 34.7043 17.4121 30.1734 15.668C25.5213 13.8771 20.8476 13.1087 17.0732 14.0725C15.1617 14.5606 13.4656 15.4985 12.1564 16.9807C10.8488 18.4611 9.99201 20.4109 9.63537 22.8188C8.93677 27.5355 10.0078 31.4343 12.4315 34.1372ZM22.4767 36.8222C14.9567 37.0032 9.55949 31.8627 10.8719 23.0019C12.1843 14.1412 20.6368 13.3363 29.7244 16.8345C38.812 20.3327 42.1193 23.1856 40.3092 30.0787C38.5091 36.9335 32.3153 36.876 25.8785 36.8162C24.7445 36.8057 23.603 36.7951 22.4767 36.8222Z" fill="#855D22"/>
<path d="M23.1218 17.2662C23.9231 18.8575 22.0712 20.553 19.6843 21.7551C17.2973 22.9571 14.5285 23.3464 13.7272 21.7551C12.9258 20.1638 14.2111 17.8993 16.5981 16.6972C18.985 15.4952 22.3204 15.6749 23.1218 17.2662Z" fill="#DB9F45"/>
<path fill-rule="evenodd" clip-rule="evenodd" d="M10.8121 23.4401C11.6209 25.5568 13.043 27.4331 15.3259 28.1956C21.2938 30.1888 33.5219 27.2363 31.7017 19.8035C31.4563 18.8015 31.0483 17.9208 30.5182 17.1443C39.0039 20.5055 42.0656 23.3901 40.3093 30.0786C38.5092 36.9334 32.3154 36.8759 25.8785 36.8162C24.7446 36.8056 23.6031 36.795 22.4768 36.8222C15.0817 37.0002 9.73938 32.0318 10.8121 23.4401Z" fill="#AA7A32"/>
<path d="M50.3039 33.4094C48.7755 25.5246 40.6258 20.5053 31.4853 27.2261C22.3449 33.947 14.5487 31.2587 15.252 39.3346C15.8704 46.4344 25.84 47.9266 34.1738 47.9266C42.5075 47.9266 51.5162 40.4323 50.3039 33.4094Z" fill="#DD9B38"/>
<path fill-rule="evenodd" clip-rule="evenodd" d="M51.5335 33.1842L51.531 33.1716C50.6996 28.8825 48.0441 25.2713 44.2287 23.6864C40.3725 22.0845 35.5912 22.6557 30.7449 26.2191C27.3082 28.7461 24.135 29.858 21.402 30.8156C20.6394 31.0828 19.9112 31.338 19.221 31.6085C17.6864 32.2102 16.2171 32.9407 15.2225 34.2098C14.1881 35.5296 13.814 37.2299 14.0067 39.4431C14.3787 43.7143 17.6 46.1443 21.4077 47.4733C25.2195 48.8037 29.9635 49.1766 34.1738 49.1766C38.6893 49.1766 43.3088 47.1607 46.6421 44.2421C49.9493 41.3462 52.2465 37.3146 51.5357 33.1968L51.5335 33.1842ZM50.3039 33.4094C51.5162 40.4323 42.5075 47.9266 34.1738 47.9266C25.84 47.9267 15.8704 46.4345 15.252 39.3346C14.8259 34.4423 17.5191 33.5003 21.7407 32.0237C24.4878 31.0629 27.8821 29.8756 31.4853 27.2262C40.6258 20.5053 48.7755 25.5247 50.3039 33.4094Z" fill="#976923"/>
<path fill-rule="evenodd" clip-rule="evenodd" d="M42.3735 24.386C45.2443 25.812 47.291 28.6963 47.9653 32.1745C49.1034 38.7677 40.6459 45.8035 32.8221 45.8035C25.3972 45.8035 16.589 44.5419 15.214 38.7162C15.2208 38.9151 15.2335 39.1211 15.2521 39.3347C15.8704 46.4345 25.8401 47.9267 34.1738 47.9267C42.5076 47.9267 51.5163 40.4324 50.304 33.4095C49.4394 28.9494 46.4562 25.4061 42.3735 24.386Z" fill="#CA8E34"/>
<path d="M33.1701 32.3982C32.7277 32.7944 32.0478 32.7569 31.6517 32.3144C31.2555 31.8719 31.293 31.1921 31.7355 30.7959C32.1779 30.3998 32.8578 30.4373 33.2539 30.8798C33.6501 31.3222 33.6126 32.0021 33.1701 32.3982Z" fill="#996518"/>
<path d="M22.5451 42.3982C22.1027 42.7944 21.4228 42.7569 21.0267 42.3144C20.6305 41.8719 20.668 41.1921 21.1105 40.7959C21.5529 40.3998 22.2328 40.4373 22.6289 40.8798C23.0251 41.3222 22.9876 42.0021 22.5451 42.3982Z" fill="#996518"/>
<path d="M28.1701 38.6482C27.7277 39.0444 27.0478 39.0069 26.6517 38.5644C26.2555 38.1219 26.293 37.4421 26.7355 37.0459C27.1779 36.6498 27.8578 36.6873 28.2539 37.1298C28.6501 37.5722 28.6126 38.2521 28.1701 38.6482Z" fill="#996518"/>
<path d="M33.1701 42.3982C32.7277 42.7944 32.0478 42.7569 31.6517 42.3144C31.2555 41.8719 31.293 41.1921 31.7355 40.7959C32.1779 40.3998 32.8578 40.4373 33.2539 40.8798C33.6501 41.3222 33.6126 42.0021 33.1701 42.3982Z" fill="#996518"/>
<path d="M41.2951 34.2732C40.8527 34.6694 40.1728 34.6319 39.7767 34.1894C39.3805 33.7469 39.418 33.0671 39.8605 32.6709C40.3029 32.2748 40.9828 32.3123 41.3789 32.7548C41.7751 33.1972 41.7376 33.8771 41.2951 34.2732Z" fill="#996518"/>
<path d="M41.2951 28.0232C40.8527 28.4194 40.1728 28.3819 39.7767 27.9394C39.3805 27.4969 39.418 26.8171 39.8605 26.4209C40.3029 26.0248 40.9828 26.0623 41.3789 26.5048C41.7751 26.9472 41.7376 27.6271 41.2951 28.0232Z" fill="#996518"/>
<path d="M48.7951 34.8982C48.3527 35.2944 47.6728 35.2569 47.2767 34.8144C46.8805 34.3719 46.918 33.6921 47.3605 33.2959C47.8029 32.8998 48.4828 32.9373 48.8789 33.3798C49.2751 33.8222 49.2376 34.5021 48.7951 34.8982Z" fill="#996518"/>
<path d="M36.9201 37.3982C36.4777 37.7944 35.7978 37.7569 35.4017 37.3144C35.0055 36.8719 35.043 36.1921 35.4855 35.7959C35.9279 35.3998 36.6078 35.4373 37.0039 35.8798C37.4001 36.3222 37.3626 37.0021 36.9201 37.3982Z" fill="#996518"/>
<path d="M45.2358 39.6946C44.7934 40.0908 44.1136 40.0532 43.7174 39.6108C43.3212 39.1683 43.3588 38.4885 43.8012 38.0923C44.2437 37.6962 44.9235 37.7337 45.3197 38.1761C45.7158 38.6186 45.6783 39.2984 45.2358 39.6946Z" fill="#996518"/>
<path d="M38.3608 44.6946C37.9184 45.0908 37.2386 45.0532 36.8424 44.6108C36.4462 44.1683 36.4838 43.4885 36.9262 43.0923C37.3687 42.6962 38.0485 42.7337 38.4447 43.1761C38.8408 43.6186 38.8033 44.2984 38.3608 44.6946Z" fill="#996518"/>
<path d="M44.6108 44.6946C44.1684 45.0908 43.4886 45.0532 43.0924 44.6108C42.6962 44.1683 42.7338 43.4885 43.1762 43.0923C43.6187 42.6962 44.2985 42.7337 44.6947 43.1761C45.0908 43.6186 45.0533 44.2984 44.6108 44.6946Z" fill="#996518"/>
<path d="M33.9858 48.4446C33.5434 48.8408 32.8636 48.8032 32.4674 48.3608C32.0712 47.9183 32.1088 47.2385 32.5512 46.8423C32.9937 46.4462 33.6735 46.4837 34.0697 46.9261C34.4658 47.3686 34.4283 48.0484 33.9858 48.4446Z" fill="#996518"/>
<path d="M26.9201 48.0232C26.4777 48.4194 25.7978 48.3819 25.4017 47.9394C25.0055 47.4969 25.043 46.8171 25.4855 46.4209C25.9279 46.0248 26.6078 46.0623 27.0039 46.5048C27.4001 46.9472 27.3626 47.6271 26.9201 48.0232Z" fill="#996518"/>
<path d="M16.9201 36.7732C16.4777 37.1694 15.7978 37.1319 15.4017 36.6894C15.0055 36.2469 15.043 35.5671 15.4855 35.1709C15.9279 34.7748 16.6078 34.8123 17.0039 35.2548C17.4001 35.6972 17.3626 36.3771 16.9201 36.7732Z" fill="#996518"/>
<path d="M26.9201 31.7732C26.4777 32.1694 25.7978 32.1319 25.4017 31.6894C25.0055 31.2469 25.043 30.5671 25.4855 30.1709C25.9279 29.7748 26.6078 29.8123 27.0039 30.2548C27.4001 30.6972 27.3626 31.3771 26.9201 31.7732Z" fill="#996518"/>
<path d="M48.795 29.2732C48.3525 29.6694 47.6727 29.6319 47.2765 29.1894C46.8803 28.7469 46.9179 28.0671 47.3603 27.6709C47.8028 27.2748 48.4826 27.3123 48.8788 27.7548C49.2749 28.1972 49.2374 28.8771 48.795 29.2732Z" fill="#996518"/>
<path d="M26.121 34.277C26.9223 35.8683 25.637 38.1327 23.2501 39.3348C20.8631 40.5369 18.2785 40.2214 17.4771 38.6301C16.6757 37.0388 17.9611 34.7743 20.348 33.5722C22.7349 32.3702 25.3196 32.6857 26.121 34.277Z" fill="#EEB257"/>
<path fill-rule="evenodd" clip-rule="evenodd" d="M21.7677 35.2077C22.0905 35.8179 21.8573 36.5743 21.247 36.897C20.8677 37.0976 20.5702 37.3506 20.337 37.6561C19.9181 38.2048 19.1337 38.3101 18.5849 37.8912C18.0362 37.4724 17.9309 36.6879 18.3498 36.1392C18.8129 35.5325 19.3949 35.0484 20.0784 34.687C20.6887 34.3642 21.445 34.5974 21.7677 35.2077Z" fill="white"/>
</svg>
