<svg width="61" height="61" viewBox="0 0 61 61" fill="none" xmlns="http://www.w3.org/2000/svg">
<path d="M31.813 16.688C31.774 16.3682 31.504 16.125 31.1818 16.125H29.8295C29.5026 16.125 29.2299 16.3758 29.1948 16.7008C29.0744 17.8149 28.7379 20.31 28 22.0625C27.33 23.6538 25.388 25.6716 23.0117 27.0833C18.3125 29.875 15.5 32.9757 15.5 37.375C15.5 43.9334 22.2157 49.25 30.5 49.25C38.7843 49.25 45.5 43.9334 45.5 37.375C45.5 32.9426 42.1018 29.7523 37.8867 27.0373C35.5 25.5 33.6649 23.7225 33 22.0625C32.317 20.3572 31.9496 17.8087 31.813 16.688Z" fill="#E289B0"/>
<path fill-rule="evenodd" clip-rule="evenodd" d="M29.8295 14.875H31.1818C32.1469 14.875 32.9398 15.6008 33.0538 16.5368C33.1916 17.6667 33.5456 20.0629 34.1604 21.5977C34.677 22.8877 36.2377 24.4883 38.5636 25.9864C42.7947 28.7117 46.75 32.2292 46.75 37.375C46.75 44.8802 39.1866 50.5 30.5 50.5C21.8134 50.5 14.25 44.8802 14.25 37.375C14.25 32.301 17.552 28.8728 22.3733 26.0086C24.6202 24.6738 26.3194 22.8328 26.848 21.5774C27.5073 20.0114 27.8315 17.6822 27.952 16.5665C28.054 15.6228 28.8482 14.875 29.8295 14.875ZM31.1818 16.125C31.504 16.125 31.774 16.3682 31.813 16.688C31.9496 17.8087 32.317 20.3572 33 22.0625C33.6649 23.7225 35.5 25.5 37.8867 27.0373C42.1018 29.7523 45.5 32.9426 45.5 37.375C45.5 43.9334 38.7843 49.25 30.5 49.25C22.2157 49.25 15.5 43.9334 15.5 37.375C15.5 32.9757 18.3125 29.875 23.0117 27.0833C25.388 25.6716 27.33 23.6538 28 22.0625C28.7379 20.31 29.0744 17.8149 29.1948 16.7008C29.2299 16.3758 29.5026 16.125 29.8295 16.125H31.1818Z" fill="#9D225D"/>
<path d="M26.2362 29.6358C27.684 31.1167 26.9283 34.2037 24.5481 36.5307C22.168 38.8577 19.0648 39.5436 17.617 38.0627C16.1691 36.5818 16.9249 33.4949 19.305 31.1679C21.6851 28.8409 24.7883 28.1549 26.2362 29.6358Z" fill="#FFA7CF"/>
<path fill-rule="evenodd" clip-rule="evenodd" d="M29.7108 16.1362C29.4386 16.1883 29.2255 16.416 29.1947 16.7008C29.1537 17.0803 29.0876 17.6202 28.9891 18.2363C29.288 17.4747 29.5319 16.7294 29.7108 16.1362ZM19.4901 45.4401C21.3647 46.5704 23.5586 47.3927 25.9598 47.7842C34.1361 49.1173 41.6199 44.9506 42.6752 38.4777C43.3884 34.1031 40.5479 30.4075 36.8246 27.0496C35.1426 25.5326 33.8316 23.9212 33.1728 22.4453C33.9488 23.993 35.6825 25.6176 37.8867 27.0373C42.1017 29.7523 45.5 32.9427 45.5 37.375C45.5 43.9334 38.7842 49.25 30.4999 49.25C26.1486 49.25 22.2301 47.7832 19.4901 45.4401Z" fill="#C7638F"/>
<path d="M31.75 36.75C31.75 42.9632 31.4702 48 31.125 48C30.7798 48 30.5 42.9632 30.5 36.75C30.5 30.5368 30.7798 25.5 31.125 25.5C31.4702 25.5 31.75 30.5368 31.75 36.75Z" fill="#C54C82"/>
<path d="M41.75 36.4375C41.75 41.7878 36.4871 46.125 36.143 46.125C35.7989 46.125 40.504 41.7878 40.504 36.4375C40.504 31.0872 35.7989 26.75 36.143 26.75C36.4871 26.75 41.75 31.0872 41.75 36.4375Z" fill="#C54C82"/>
<path d="M19.25 36.4375C19.25 41.7878 24.5129 46.125 24.857 46.125C25.2011 46.125 20.496 41.7878 20.496 36.4375C20.496 31.0872 25.2011 26.75 24.857 26.75C24.5129 26.75 19.25 31.0872 19.25 36.4375Z" fill="#C54C82"/>
<path d="M36.75 37.0625C36.75 43.1031 33.7859 48 33.633 48C33.4801 48 34.9462 43.1031 34.9462 37.0625C34.9462 31.0219 33.4801 26.125 33.633 26.125C33.7859 26.125 36.75 31.0219 36.75 37.0625Z" fill="#C54C82"/>
<path d="M24.875 37.0625C24.875 43.1031 27.8391 48 27.992 48C28.1449 48 26.6788 43.1031 26.6788 37.0625C26.6788 31.0219 28.1449 26.125 27.992 26.125C27.8391 26.125 24.875 31.0219 24.875 37.0625Z" fill="#C54C82"/>
<path d="M41.6123 38.6302C41.3639 39.1097 40.7737 39.2971 40.2942 39.0486C39.8147 38.8002 39.6274 38.2101 39.8758 37.7306C40.1242 37.2511 40.7144 37.0637 41.1939 37.3122C41.6734 37.5606 41.8607 38.1507 41.6123 38.6302Z" fill="#A3446E"/>
<path d="M43.6493 41.5726C43.4008 42.0522 42.8107 42.2395 42.3312 41.9911C41.8517 41.7426 41.6644 41.1525 41.9128 40.673C42.1612 40.1935 42.7513 40.0061 43.2308 40.2546C43.7104 40.503 43.8977 41.0931 43.6493 41.5726Z" fill="#A3446E"/>
<path d="M44.2829 38.1234C44.0966 38.483 43.654 38.6235 43.2944 38.4372C42.9347 38.2509 42.7942 37.8083 42.9805 37.4487C43.1669 37.089 43.6095 36.9485 43.9691 37.1348C44.3287 37.3212 44.4692 37.7638 44.2829 38.1234Z" fill="#A3446E"/>
<path d="M41.6093 44.4609C41.3608 44.9404 40.7707 45.1277 40.2912 44.8793C39.8117 44.6309 39.6243 44.0408 39.8728 43.5612C40.1212 43.0817 40.7113 42.8944 41.1908 43.1428C41.6704 43.3913 41.8577 43.9814 41.6093 44.4609Z" fill="#A3446E"/>
<path d="M40.1852 41.4699C39.9368 41.9495 39.3467 42.1368 38.8672 41.8884C38.3877 41.6399 38.2003 41.0498 38.4487 40.5703C38.6972 40.0908 39.2873 39.9035 39.7668 40.1519C40.2463 40.4003 40.4337 40.9904 40.1852 41.4699Z" fill="#A3446E"/>
<path d="M38.237 46.4685C37.9886 46.948 37.3985 47.1353 36.919 46.8869C36.4395 46.6384 36.2521 46.0483 36.5006 45.5688C36.749 45.0893 37.3391 44.902 37.8186 45.1504C38.2981 45.3988 38.4855 45.9889 38.237 46.4685Z" fill="#A3446E"/>
<path d="M37.3791 43.4862C37.1307 43.9657 36.5406 44.153 36.0611 43.9046C35.5815 43.6562 35.3942 43.0661 35.6426 42.5866C35.8911 42.107 36.4812 41.9197 36.9607 42.1681C37.4402 42.4166 37.6276 43.0067 37.3791 43.4862Z" fill="#A3446E"/>
<path d="M34.545 47.5813C34.3587 47.941 33.9161 48.0815 33.5565 47.8952C33.1968 47.7088 33.0563 47.2663 33.2427 46.9066C33.429 46.547 33.8716 46.4065 34.2312 46.5928C34.5908 46.7791 34.7313 47.2217 34.545 47.5813Z" fill="#A3446E"/>
<path fill-rule="evenodd" clip-rule="evenodd" d="M21.5422 32.4228C22.0421 32.8989 22.0614 33.6902 21.5853 34.1901C21.2221 34.5715 20.9716 34.9854 20.8175 35.4374C20.5947 36.0908 19.8844 36.4399 19.231 36.2171C18.5776 35.9943 18.2285 35.284 18.4513 34.6306C18.7277 33.8199 19.1744 33.0965 19.775 32.4659C20.2511 31.966 21.0423 31.9467 21.5422 32.4228Z" fill="white"/>
</svg>
